<svg width="12" height="7" viewBox="0 0 12 7" fill="none" xmlns="http://www.w3.org/2000/svg">
<path d="M1.83895 0.31045L6.0056 4.43531L10.1722 0.31045C10.2717 0.212025 10.3897 0.133951 10.5196 0.0806839C10.6495 0.0274169 10.7887 1.03707e-09 10.9293 0C11.0699 -1.03707e-09 11.2092 0.0274169 11.3391 0.0806839C11.469 0.133951 11.587 0.212025 11.6864 0.31045C11.7858 0.408874 11.8647 0.525721 11.9185 0.654319C11.9723 0.782917 12 0.920748 12 1.05994C12 1.19913 11.9723 1.33696 11.9185 1.46556C11.8647 1.59416 11.7858 1.71101 11.6864 1.80943L6.75731 6.6891C6.65796 6.78765 6.53996 6.86584 6.41005 6.91919C6.28014 6.97254 6.14087 7 6.00023 7C5.85958 7 5.72032 6.97254 5.59041 6.91919C5.4605 6.86584 5.34249 6.78765 5.24314 6.6891L0.314049 1.80943C0.214496 1.71108 0.135515 1.59426 0.0816267 1.46565C0.0277379 1.33704 0 1.19917 0 1.05994C0 0.920708 0.0277379 0.782841 0.0816267 0.654233C0.135515 0.525625 0.214496 0.408802 0.314049 0.31045C0.732861 -0.0935314 1.42014 -0.104162 1.83895 0.31045Z" fill="#686868"/>
</svg>
