<svg width="12" height="12" viewBox="0 0 12 12" fill="none" xmlns="http://www.w3.org/2000/svg">
<path d="M11.0208 10.4313L6.58974 6.00025L11.0207 1.56926C11.1836 1.40643 11.1836 1.1424 11.0207 0.979555C10.8579 0.816711 10.5939 0.816711 10.431 0.979555L6.00004 5.41055L1.56901 0.979555C1.40619 0.816711 1.14215 0.816711 0.97931 0.979555C0.816467 1.14238 0.816467 1.40641 0.97931 1.56926L5.41032 6.00025L0.97931 10.4313C0.816467 10.5941 0.816467 10.8581 0.97931 11.021C1.14213 11.1838 1.40617 11.1838 1.56901 11.021L6.00004 6.58995L10.4311 11.021C10.5939 11.1838 10.8579 11.1838 11.0208 11.021C11.1836 10.8581 11.1836 10.5941 11.0208 10.4313Z" fill="#D50202" stroke="#D40202" stroke-width="0.3"/>
</svg>
