<svg width="37" height="25" viewBox="0 0 37 25" fill="none" xmlns="http://www.w3.org/2000/svg">
    <rect width="37" height="25" rx="4" fill="#EDF1F9"/>
    <path d="M19.4809 10.8665C19.465 12.1153 20.6034 12.812 21.461 13.2264C22.3422 13.6514 22.6381 13.924 22.6346 14.3042C22.6281 14.886 21.9318 15.1427 21.2803 15.1527C20.1435 15.1702 19.4826 14.8484 18.9571 14.6051L18.5476 16.5048C19.0748 16.7456 20.051 16.9556 21.0632 16.9648C23.4394 16.9648 24.994 15.802 25.0024 13.9991C25.0117 11.7109 21.81 11.5843 21.8318 10.5615C21.8394 10.2514 22.1379 9.92045 22.7919 9.8363C23.1157 9.7938 24.0094 9.76127 25.0226 10.2238L25.4203 8.38589C24.8754 8.18919 24.1751 8.00084 23.3031 8.00084C21.0666 8.00084 19.4936 9.17952 19.4809 10.8665ZM29.2417 8.15916C28.8078 8.15916 28.4421 8.41007 28.2789 8.79512L24.8847 16.8298H27.2591L27.7316 15.5353H30.6331L30.9072 16.8298H33L31.1738 8.15916H29.2417ZM29.5738 10.5014L30.2591 13.7574H28.3824L29.5738 10.5014ZM16.6021 8.15927L14.7304 16.8297H16.9931L18.8638 8.15905H16.6021V8.15927ZM13.2549 8.15905L10.8998 14.0608L9.94714 9.04278C9.83536 8.48262 9.39392 8.15916 8.9037 8.15916H5.05392L5 8.41094C5.79034 8.58096 6.68831 8.85519 7.23234 9.14861C7.56528 9.32786 7.66022 9.48454 7.76959 9.91047L9.57395 16.8298H11.965L15.6308 8.15916H13.2549" fill="url(#paint0_linear)"/>
    <defs>
        <linearGradient id="paint0_linear" x1="17.8727" y1="17.1447" x2="18.13" y2="7.93838" gradientUnits="userSpaceOnUse">
            <stop stop-color="#222357"/>
            <stop offset="1" stop-color="#254AA5"/>
        </linearGradient>
    </defs>
</svg>
