<svg width="17" height="17" viewBox="0 0 17 17" fill="none" xmlns="http://www.w3.org/2000/svg">
<path d="M16.8522 3.81439C16.7199 3.64494 16.5168 3.5459 16.3018 3.5459H3.00966L2.81208 1.34475C2.77976 0.984796 2.47808 0.708984 2.1167 0.708984H0.698174C0.312582 0.708984 0 1.02157 0 1.40716C0 1.79275 0.312582 2.10533 0.698174 2.10533H1.4784L2.24366 10.631C2.24383 10.641 2.24333 10.6509 2.2439 10.661C2.24546 10.6878 2.24895 10.714 2.25341 10.7398L2.2814 11.0515C2.28193 11.0574 2.28253 11.0633 2.28323 11.0691C2.36807 11.8042 2.74372 12.4411 3.28694 12.8714C3.00547 13.2309 2.83705 13.6828 2.83705 14.1737C2.83705 15.3409 3.7866 16.2904 4.95371 16.2904C6.12086 16.2904 7.07041 15.3409 7.07041 14.1737C7.07041 13.9209 7.02569 13.6784 6.94404 13.4534H10.7652C10.6836 13.6784 10.6389 13.9209 10.6389 14.1737C10.6389 15.3409 11.5884 16.2904 12.7556 16.2904C13.9227 16.2904 14.8723 15.3409 14.8723 14.1737C14.8723 13.0066 13.9227 12.057 12.7556 12.057H4.95843C4.42808 12.057 3.96593 11.7371 3.76645 11.2709L14.9242 10.6151C15.2288 10.5973 15.4865 10.3835 15.5606 10.0875L16.9792 4.41336C17.0313 4.20484 16.9844 3.98389 16.8522 3.81439Z" fill="#fff"/>
</svg>
