<?xml version="1.0" encoding="iso-8859-1"?>
<!-- Generator: Adobe Illustrator 19.0.0, SVG Export Plug-In . SVG Version: 6.00 Build 0)  -->
<svg version="1.1" id="Capa_1" xmlns="http://www.w3.org/2000/svg" xmlns:xlink="http://www.w3.org/1999/xlink" x="0px" y="0px"
	 viewBox="0 0 56.48 56.48" style="enable-background:new 0 0 56.48 56.48;" xml:space="preserve">
<g>
	<g>
		<path d="M26.37,40.2c-0.177-0.175-0.402-0.264-0.675-0.266c-0.42,0-0.761,0.184-1.026,0.554c-0.263,0.37-0.395,0.777-0.395,1.217
			c0,0.271,0.088,0.497,0.263,0.681c0.174,0.183,0.404,0.274,0.69,0.274c0.231,0,0.454-0.071,0.668-0.216
			c0.215-0.144,0.39-0.363,0.53-0.657c0.141-0.294,0.21-0.579,0.21-0.858C26.635,40.622,26.547,40.377,26.37,40.2z"/>
	</g>
</g>
<g>
	<g>
		<path d="M28.355,13.995c-5.979-0.132-11.019,4.78-11.132,10.849c-0.115,6.149,4.744,11.127,10.963,11.236
			c5.977,0.103,10.97-4.813,11.078-10.903C39.372,19.098,34.525,14.133,28.355,13.995z M31.932,29.296
			c-1.088,2.281-2.985,3.494-5.49,3.578c-2.272,0.077-4.075-0.919-5.434-2.846c0.616-0.417,1.191-0.805,1.811-1.225
			c0.829,1.125,1.919,1.789,3.31,1.836c0.864,0.028,1.686-0.207,2.398-0.709c1.746-1.231,2.118-3.034,1.137-5.569
			c0.587-0.375,1.187-0.758,1.866-1.193C32.739,25.198,32.914,27.237,31.932,29.296z M33.912,21.77
			c-2.169-1.995-3.986-2.327-5.737-1.1c-1.34,0.938-2.498,3.038-1.116,5.573c-0.617,0.392-1.205,0.764-1.791,1.136
			c-1.729-2.305-1.514-6.46,1.724-8.64c2.865-1.93,7.048-1.076,8.699,1.823C35.098,20.965,34.502,21.37,33.912,21.77z"/>
	</g>
</g>
<g>
	<g>
		<path d="M33.926,40.2c-0.178-0.175-0.404-0.264-0.674-0.266c-0.421,0-0.762,0.184-1.025,0.554
			c-0.263,0.37-0.396,0.777-0.396,1.217c0,0.271,0.088,0.497,0.264,0.681c0.171,0.183,0.404,0.274,0.689,0.274
			c0.23,0,0.454-0.072,0.668-0.216c0.214-0.144,0.39-0.363,0.531-0.657c0.139-0.294,0.209-0.579,0.209-0.858
			C34.192,40.622,34.104,40.377,33.926,40.2z"/>
	</g>
</g>
<g>
	<g>
		<path d="M55.026,9.939H1.454C0.65,9.939,0,10.59,0,11.393v33.695c0,0.803,0.65,1.454,1.454,1.454h53.572
			c0.804,0,1.454-0.651,1.454-1.454V11.393C56.48,10.59,55.83,9.939,55.026,9.939z M20.857,40.599c0.094,0.076,0.3,0.179,0.619,0.31
			c0.481,0.194,0.787,0.354,0.918,0.476c0.196,0.181,0.294,0.412,0.294,0.692c0,0.349-0.146,0.646-0.438,0.892
			c-0.292,0.248-0.698,0.371-1.22,0.371c-0.359,0-0.669-0.058-0.934-0.171c-0.263-0.114-0.447-0.271-0.557-0.475
			c-0.108-0.204-0.158-0.437-0.151-0.7l0.819-0.041c0.011,0.246,0.056,0.412,0.133,0.498c0.126,0.141,0.357,0.21,0.696,0.21
			c0.28,0,0.484-0.048,0.61-0.144c0.124-0.094,0.188-0.209,0.188-0.344c0-0.117-0.051-0.216-0.153-0.297
			c-0.072-0.059-0.271-0.154-0.595-0.287c-0.324-0.134-0.562-0.244-0.711-0.334c-0.148-0.089-0.266-0.203-0.352-0.345
			c-0.085-0.142-0.128-0.308-0.128-0.498c0-0.333,0.128-0.606,0.383-0.827c0.254-0.219,0.622-0.328,1.105-0.328
			c0.49,0,0.87,0.108,1.139,0.326c0.27,0.217,0.417,0.506,0.444,0.866l-0.825,0.036c-0.021-0.188-0.093-0.333-0.216-0.434
			c-0.124-0.101-0.307-0.15-0.548-0.15c-0.238,0-0.407,0.04-0.509,0.117c-0.102,0.08-0.152,0.18-0.152,0.3
			C20.719,40.43,20.764,40.526,20.857,40.599z M27.182,42.127c-0.207,0.389-0.489,0.688-0.845,0.898
			c-0.354,0.209-0.758,0.314-1.206,0.314c-0.39,0-0.717-0.082-0.98-0.25c-0.265-0.166-0.452-0.373-0.563-0.621
			c-0.109-0.246-0.165-0.496-0.165-0.748c0-0.231,0.038-0.479,0.111-0.736c0.097-0.346,0.245-0.646,0.443-0.901
			c0.199-0.255,0.45-0.456,0.752-0.604c0.302-0.147,0.646-0.222,1.031-0.222c0.518,0,0.935,0.15,1.253,0.455
			c0.319,0.303,0.478,0.705,0.478,1.205C27.492,41.333,27.388,41.739,27.182,42.127z M30.707,43.271h-2.988l0.876-3.946h0.856
			l-0.726,3.287h2.126L30.707,43.271z M34.738,42.127c-0.208,0.389-0.488,0.688-0.844,0.898c-0.356,0.209-0.76,0.314-1.206,0.314
			c-0.392,0-0.718-0.082-0.982-0.25c-0.264-0.166-0.45-0.373-0.562-0.621c-0.109-0.246-0.164-0.496-0.164-0.748
			c0-0.231,0.035-0.479,0.109-0.736c0.098-0.346,0.244-0.646,0.443-0.901c0.199-0.255,0.449-0.456,0.751-0.604
			s0.646-0.222,1.033-0.222c0.517,0,0.935,0.15,1.252,0.455c0.319,0.303,0.479,0.705,0.479,1.205
			C35.049,41.333,34.945,41.739,34.738,42.127z M28.241,36.929c-6.488,0.049-11.891-5.319-11.909-11.838
			c-0.019-6.583,5.292-11.909,11.914-11.951c6.451-0.04,11.846,5.277,11.901,11.733C40.208,31.536,34.934,36.877,28.241,36.929z"/>
	</g>
</g>
<g>
</g>
<g>
</g>
<g>
</g>
<g>
</g>
<g>
</g>
<g>
</g>
<g>
</g>
<g>
</g>
<g>
</g>
<g>
</g>
<g>
</g>
<g>
</g>
<g>
</g>
<g>
</g>
<g>
</g>
</svg>
