<svg width="25" height="25" viewBox="0 0 25 25" fill="none" xmlns="http://www.w3.org/2000/svg">
<path d="M12.5 0C5.60708 0 0 5.60708 0 12.5C0 19.3929 5.60708 25 12.5 25C19.3929 25 25 19.3919 25 12.5C25 5.60806 19.3929 0 12.5 0ZM12.5 23.0635C6.67603 23.0635 1.93647 18.325 1.93647 12.5C1.93647 6.67505 6.67603 1.93647 12.5 1.93647C18.325 1.93647 23.0635 6.67505 23.0635 12.5C23.0635 18.325 18.324 23.0635 12.5 23.0635Z" fill="#13B772"/>
<path d="M18.235 8.15142C17.8409 7.79317 17.228 7.82124 16.8678 8.21724L10.9615 14.7209L8.1081 11.8201C7.73144 11.4386 7.11953 11.4328 6.73901 11.8085C6.35751 12.1832 6.3517 12.7961 6.72739 13.1776L10.2992 16.8085C10.4822 16.9944 10.7301 17.098 10.9895 17.098C10.9954 17.098 11.0021 17.098 11.008 17.099C11.2752 17.0932 11.5269 16.9789 11.7061 16.7814L18.3007 9.51958C18.66 9.12256 18.631 8.51065 18.235 8.15142Z" fill="#13B772"/>
</svg>
