<svg width="16" height="16" viewBox="0 0 16 16" fill="none" xmlns="http://www.w3.org/2000/svg">
<g clip-path="url(#clip0)">
<path d="M10.3965 16C10.032 16 9.70014 15.7711 9.57072 15.4309L6.66701 7.80934C6.6316 7.73075 6.60791 7.61598 6.60791 7.4928C6.60791 7.0052 7.00444 6.60791 7.49217 6.60791C7.61802 6.60791 7.73495 6.63224 7.84067 6.68026L15.4302 9.57072C15.7711 9.70014 16 10.032 16 10.3971C16 10.7812 15.7536 11.1193 15.3885 11.2382L12.2622 12.2622L11.2375 15.3906C11.1179 15.755 10.7798 16 10.3965 16ZM7.76832 7.76896L10.3861 14.6386L11.353 11.6869C11.4045 11.529 11.529 11.4052 11.6862 11.3536L14.6378 10.3867L7.76832 7.76896ZM15.0608 10.5475H15.0677H15.0608ZM7.43854 7.64311C7.44058 7.64451 7.44415 7.64591 7.44759 7.64655L7.43854 7.64311ZM7.63267 7.41217L7.64311 7.43854C7.63954 7.43026 7.63687 7.42122 7.63267 7.41217Z" fill="#0E412B"/>
<path d="M6.95648 13.9131C3.12075 13.9131 0 10.7923 0 6.95648C0 3.12075 3.12075 0 6.95648 0C10.7923 0 13.9131 3.12075 13.9131 6.95648C13.9131 7.05813 13.9123 7.15901 13.9047 7.26117C13.8824 7.54853 13.6279 7.76622 13.344 7.74125C13.0567 7.71896 12.8417 7.46854 12.864 7.18117C12.8702 7.10615 12.8696 7.031 12.8696 6.95648C12.8696 3.69599 10.2171 1.04348 6.95648 1.04348C3.69599 1.04348 1.04348 3.69599 1.04348 6.95648C1.04348 10.2171 3.69599 12.8696 6.95648 12.8696C7.0338 12.8688 7.11379 12.8702 7.18742 12.8646C7.47198 12.8425 7.72597 13.0574 7.74813 13.3447C7.77042 13.632 7.55554 13.8824 7.26817 13.9047C7.16665 13.9123 7.05813 13.9131 6.95648 13.9131Z" fill="#0E412B"/>
</g>
<defs>
<clipPath id="clip0">
<rect width="16" height="16" fill="white"/>
</clipPath>
</defs>
</svg>
