<svg width="12" height="20" viewBox="0 0 12 20" fill="none" xmlns="http://www.w3.org/2000/svg">
<path d="M6.00002 0C3.01013 0 0.576904 2.43249 0.576904 5.4232V15.6905C0.576904 16.057 0.873467 16.3536 1.24005 16.3536C1.6064 16.3536 1.90296 16.057 1.90296 15.6905V5.4232C1.90296 3.16413 3.74051 1.3261 6.00002 1.3261C8.25978 1.3261 10.0973 3.16413 10.0973 5.4232V16.0085C10.0973 17.478 8.90141 18.674 7.43158 18.674C7.42066 18.674 7.41083 18.6798 7.39995 18.6804C7.3883 18.6798 7.3792 18.674 7.36759 18.674C5.89788 18.674 4.702 17.478 4.702 16.0085V9.65885C4.702 8.94271 5.284 8.36067 6.00002 8.36067C6.71621 8.36067 7.29825 8.94271 7.29825 9.65885V15.6905C7.29825 16.057 7.59534 16.3536 7.9612 16.3536C8.32697 16.3536 8.62431 16.057 8.62431 15.6905V9.65885C8.62431 8.21172 7.44716 7.03461 6.00002 7.03461C4.55309 7.03461 3.37594 8.21176 3.37594 9.65885V16.0085C3.37594 18.2091 5.1662 20 7.36755 20C7.37916 20 7.38826 19.9942 7.39991 19.9935C7.41083 19.9942 7.42066 20 7.43154 20C9.63236 20 11.4231 18.2091 11.4231 16.0085V5.4232C11.4231 2.43249 8.98996 0 6.00002 0Z" fill="#0E412B"/>
</svg>
