<svg width="6" height="10" viewBox="0 0 6 10" fill="none" xmlns="http://www.w3.org/2000/svg">
<path d="M0.448555 8.32864L3.74844 4.99533L0.448555 1.66201C0.369816 1.58247 0.307356 1.48805 0.264743 1.38413C0.222129 1.28021 0.200195 1.16883 0.200195 1.05635C0.200195 0.943864 0.222129 0.832481 0.264743 0.728561C0.307356 0.62464 0.369816 0.530215 0.448555 0.450678C0.527295 0.37114 0.620773 0.308049 0.723651 0.265004C0.826529 0.221959 0.936794 0.199804 1.04815 0.199804C1.1595 0.199804 1.26977 0.221959 1.37265 0.265004C1.47552 0.308049 1.569 0.37114 1.64774 0.450678L5.55148 4.39396C5.63032 4.47343 5.69287 4.56784 5.73555 4.67177C5.77823 4.7757 5.8002 4.88711 5.8002 4.99962C5.8002 5.11214 5.77823 5.22355 5.73555 5.32748C5.69287 5.4314 5.63032 5.52581 5.55148 5.60529L1.64774 9.54857C1.56906 9.62821 1.4756 9.69139 1.37271 9.7345C1.26983 9.77761 1.15954 9.7998 1.04815 9.7998C0.936761 9.7998 0.826468 9.77761 0.723582 9.7345C0.620696 9.69139 0.527237 9.62821 0.448555 9.54857C0.12537 9.21352 0.116865 8.66369 0.448555 8.32864Z" fill="#13B772"/>
</svg>
