<svg width="6" height="10" viewBox="0 0 6 10" fill="none" xmlns="http://www.w3.org/2000/svg">
<path d="M5.55144 1.67136L2.25156 5.00467L5.55144 8.33799C5.63018 8.41753 5.69264 8.51195 5.73526 8.61587C5.77787 8.71979 5.7998 8.83117 5.7998 8.94365C5.7998 9.05614 5.77787 9.16752 5.73526 9.27144C5.69264 9.37536 5.63018 9.46978 5.55144 9.54932C5.4727 9.62886 5.37923 9.69195 5.27635 9.735C5.17347 9.77804 5.06321 9.8002 4.95185 9.8002C4.8405 9.8002 4.73023 9.77804 4.62735 9.735C4.52448 9.69195 4.431 9.62886 4.35226 9.54932L0.448524 5.60604C0.369681 5.52657 0.30713 5.43216 0.264451 5.32823C0.221773 5.2243 0.199805 5.11289 0.199805 5.00038C0.199805 4.88786 0.221773 4.77645 0.264451 4.67252C0.30713 4.5686 0.369681 4.47419 0.448524 4.39471L4.35226 0.451434C4.43094 0.371792 4.5244 0.308608 4.62729 0.265497C4.73017 0.222386 4.84046 0.200195 4.95185 0.200195C5.06324 0.200195 5.17353 0.222386 5.27642 0.265497C5.3793 0.308608 5.47276 0.371792 5.55144 0.451434C5.87463 0.786484 5.88313 1.33631 5.55144 1.67136Z" fill="#13B772"/>
</svg>
