<svg width="14" height="15" viewBox="0 0 14 15" fill="none" xmlns="http://www.w3.org/2000/svg">
<path d="M14 5.20333V1.4558C14 1.05384 13.6656 0.730469 13.25 0.730469H9.375C9.16875 0.730469 9 0.893668 9 1.09313V2.30201C9 2.50148 9.16875 2.66468 9.375 2.66468H12V5.20333C12 5.4028 12.1688 5.566 12.375 5.566H13.625C13.8312 5.566 14 5.4028 14 5.20333ZM5 1.09313V2.30201C5 2.50148 4.83125 2.66468 4.625 2.66468H2V5.20333C2 5.4028 1.83125 5.566 1.625 5.566H0.375C0.16875 5.566 0 5.4028 0 5.20333V1.4558C0 1.05384 0.334375 0.730469 0.75 0.730469H4.625C4.83125 0.730469 5 0.893668 5 1.09313ZM0.375 9.43442H1.625C1.83125 9.43442 2 9.59762 2 9.79708V12.3357H4.625C4.83125 12.3357 5 12.4989 5 12.6984V13.9073C5 14.1067 4.83125 14.2699 4.625 14.2699H0.75C0.334375 14.2699 0 13.9466 0 13.5446V9.79708C0 9.59762 0.16875 9.43442 0.375 9.43442ZM9 13.9073V12.6984C9 12.4989 9.16875 12.3357 9.375 12.3357H12V9.79708C12 9.59762 12.1688 9.43442 12.375 9.43442H13.625C13.8312 9.43442 14 9.59762 14 9.79708V13.5446C14 13.9466 13.6656 14.2699 13.25 14.2699H9.375C9.16875 14.2699 9 14.1067 9 13.9073Z" fill="white"/>
</svg>
