<svg width="250" height="30" viewBox="0 0 250 30" fill="none" xmlns="http://www.w3.org/2000/svg">
<path d="M83.44 23H81.064V6.008H86.512C87.328 6.008 88.104 6.096 88.84 6.272C89.576 6.432 90.216 6.696 90.76 7.064C91.32 7.432 91.76 7.92 92.08 8.528C92.4 9.12 92.56 9.848 92.56 10.712C92.56 11.96 92.176 12.968 91.408 13.736C90.64 14.504 89.648 14.992 88.432 15.2L93.184 23H90.304L85.984 15.44H83.44V23ZM83.44 13.448H86.176C86.736 13.448 87.256 13.4 87.736 13.304C88.216 13.208 88.632 13.056 88.984 12.848C89.352 12.624 89.64 12.344 89.848 12.008C90.056 11.656 90.16 11.224 90.16 10.712C90.16 10.2 90.056 9.776 89.848 9.44C89.64 9.088 89.36 8.808 89.008 8.6C88.672 8.392 88.272 8.248 87.808 8.168C87.344 8.072 86.856 8.024 86.344 8.024H83.44V13.448ZM106.925 17.288C106.925 18.168 106.765 18.976 106.445 19.712C106.141 20.448 105.709 21.088 105.149 21.632C104.605 22.16 103.957 22.576 103.205 22.88C102.453 23.168 101.645 23.312 100.781 23.312C99.9169 23.312 99.1089 23.168 98.3569 22.88C97.6049 22.576 96.9569 22.16 96.4129 21.632C95.8689 21.088 95.4369 20.448 95.1169 19.712C94.8129 18.976 94.6609 18.168 94.6609 17.288C94.6609 16.408 94.8129 15.608 95.1169 14.888C95.4369 14.152 95.8689 13.52 96.4129 12.992C96.9569 12.464 97.6049 12.056 98.3569 11.768C99.1089 11.464 99.9169 11.312 100.781 11.312C101.645 11.312 102.453 11.464 103.205 11.768C103.957 12.056 104.605 12.464 105.149 12.992C105.709 13.52 106.141 14.152 106.445 14.888C106.765 15.608 106.925 16.408 106.925 17.288ZM104.573 17.288C104.573 16.744 104.485 16.224 104.309 15.728C104.149 15.232 103.909 14.8 103.589 14.432C103.269 14.048 102.869 13.744 102.389 13.52C101.925 13.296 101.389 13.184 100.781 13.184C100.173 13.184 99.6289 13.296 99.1489 13.52C98.6849 13.744 98.2929 14.048 97.9729 14.432C97.6529 14.8 97.4049 15.232 97.2289 15.728C97.0689 16.224 96.9889 16.744 96.9889 17.288C96.9889 17.832 97.0689 18.352 97.2289 18.848C97.4049 19.344 97.6529 19.784 97.9729 20.168C98.2929 20.552 98.6849 20.856 99.1489 21.08C99.6289 21.304 100.173 21.416 100.781 21.416C101.389 21.416 101.925 21.304 102.389 21.08C102.869 20.856 103.269 20.552 103.589 20.168C103.909 19.784 104.149 19.344 104.309 18.848C104.485 18.352 104.573 17.832 104.573 17.288ZM121.573 17.288C121.573 18.168 121.413 18.976 121.093 19.712C120.789 20.448 120.357 21.088 119.797 21.632C119.253 22.16 118.605 22.576 117.853 22.88C117.101 23.168 116.293 23.312 115.429 23.312C114.565 23.312 113.757 23.168 113.005 22.88C112.253 22.576 111.605 22.16 111.061 21.632C110.517 21.088 110.085 20.448 109.765 19.712C109.461 18.976 109.309 18.168 109.309 17.288C109.309 16.408 109.461 15.608 109.765 14.888C110.085 14.152 110.517 13.52 111.061 12.992C111.605 12.464 112.253 12.056 113.005 11.768C113.757 11.464 114.565 11.312 115.429 11.312C116.293 11.312 117.101 11.464 117.853 11.768C118.605 12.056 119.253 12.464 119.797 12.992C120.357 13.52 120.789 14.152 121.093 14.888C121.413 15.608 121.573 16.408 121.573 17.288ZM119.221 17.288C119.221 16.744 119.133 16.224 118.957 15.728C118.797 15.232 118.557 14.8 118.237 14.432C117.917 14.048 117.517 13.744 117.037 13.52C116.573 13.296 116.037 13.184 115.429 13.184C114.821 13.184 114.277 13.296 113.797 13.52C113.333 13.744 112.941 14.048 112.621 14.432C112.301 14.8 112.053 15.232 111.877 15.728C111.717 16.224 111.637 16.744 111.637 17.288C111.637 17.832 111.717 18.352 111.877 18.848C112.053 19.344 112.301 19.784 112.621 20.168C112.941 20.552 113.333 20.856 113.797 21.08C114.277 21.304 114.821 21.416 115.429 21.416C116.037 21.416 116.573 21.304 117.037 21.08C117.517 20.856 117.917 20.552 118.237 20.168C118.557 19.784 118.797 19.344 118.957 18.848C119.133 18.352 119.221 17.832 119.221 17.288ZM126.91 13.496C127.198 12.888 127.654 12.376 128.278 11.96C128.918 11.528 129.67 11.312 130.534 11.312C131.302 11.312 131.99 11.488 132.598 11.84C133.222 12.192 133.71 12.776 134.062 13.592C134.446 12.856 134.982 12.296 135.67 11.912C136.358 11.512 137.11 11.312 137.926 11.312C138.662 11.312 139.294 11.44 139.822 11.696C140.35 11.936 140.79 12.264 141.142 12.68C141.494 13.096 141.75 13.584 141.91 14.144C142.086 14.704 142.174 15.304 142.174 15.944V23H139.918V16.688C139.918 16.224 139.878 15.784 139.798 15.368C139.718 14.952 139.582 14.584 139.39 14.264C139.198 13.944 138.942 13.688 138.622 13.496C138.302 13.304 137.894 13.208 137.398 13.208C136.886 13.208 136.446 13.32 136.078 13.544C135.71 13.752 135.406 14.032 135.166 14.384C134.942 14.72 134.774 15.104 134.662 15.536C134.566 15.968 134.518 16.408 134.518 16.856V23H132.262V16.232C132.262 15.784 132.222 15.376 132.142 15.008C132.062 14.64 131.926 14.328 131.734 14.072C131.542 13.8 131.294 13.592 130.99 13.448C130.686 13.288 130.31 13.208 129.862 13.208C129.03 13.208 128.334 13.552 127.774 14.24C127.23 14.912 126.958 15.816 126.958 16.952V23H124.702V14.072C124.702 13.768 124.694 13.376 124.678 12.896C124.662 12.416 124.638 11.992 124.606 11.624H126.742C126.774 11.912 126.798 12.24 126.814 12.608C126.83 12.96 126.838 13.256 126.838 13.496H126.91ZM163.239 18.992L167.127 23H163.983L161.871 20.768C161.231 21.568 160.503 22.192 159.687 22.64C158.887 23.088 157.895 23.312 156.711 23.312C155.975 23.312 155.271 23.208 154.599 23C153.927 22.792 153.335 22.488 152.823 22.088C152.327 21.672 151.927 21.168 151.623 20.576C151.335 19.968 151.191 19.272 151.191 18.488C151.191 17.848 151.295 17.28 151.503 16.784C151.727 16.272 152.015 15.816 152.367 15.416C152.719 15.016 153.127 14.664 153.591 14.36C154.055 14.056 154.527 13.792 155.007 13.568C154.463 13.008 153.999 12.416 153.615 11.792C153.247 11.152 153.063 10.448 153.063 9.68C153.063 8.992 153.183 8.392 153.423 7.88C153.679 7.368 154.015 6.944 154.431 6.608C154.863 6.256 155.351 6 155.895 5.84C156.439 5.664 157.007 5.576 157.599 5.576C158.191 5.576 158.751 5.664 159.279 5.84C159.807 6 160.271 6.248 160.671 6.584C161.071 6.92 161.391 7.336 161.631 7.832C161.871 8.328 161.991 8.904 161.991 9.56C161.991 10.12 161.887 10.624 161.679 11.072C161.487 11.52 161.223 11.928 160.887 12.296C160.551 12.664 160.159 12.992 159.711 13.28C159.279 13.568 158.823 13.824 158.343 14.048L161.727 17.528L163.863 13.928H166.503L163.239 18.992ZM159.807 9.608C159.807 9 159.599 8.488 159.183 8.072C158.783 7.656 158.263 7.448 157.623 7.448C156.967 7.448 156.423 7.656 155.991 8.072C155.559 8.488 155.343 9.032 155.343 9.704C155.343 9.976 155.391 10.248 155.487 10.52C155.599 10.792 155.735 11.064 155.895 11.336C156.055 11.592 156.231 11.832 156.423 12.056C156.631 12.28 156.831 12.48 157.023 12.656C157.375 12.496 157.719 12.32 158.055 12.128C158.391 11.936 158.687 11.712 158.943 11.456C159.199 11.2 159.407 10.92 159.567 10.616C159.727 10.312 159.807 9.976 159.807 9.608ZM156.327 15.032C155.495 15.384 154.831 15.824 154.335 16.352C153.839 16.88 153.591 17.576 153.591 18.44C153.591 18.888 153.679 19.296 153.855 19.664C154.031 20.032 154.263 20.344 154.551 20.6C154.855 20.856 155.199 21.056 155.583 21.2C155.967 21.328 156.359 21.392 156.759 21.392C157.575 21.392 158.263 21.216 158.823 20.864C159.383 20.496 159.895 19.96 160.359 19.256L156.327 15.032ZM190.015 20.36C189.343 21.272 188.471 22.016 187.399 22.592C186.327 23.152 185.039 23.432 183.535 23.432C182.239 23.432 181.039 23.216 179.935 22.784C178.847 22.336 177.903 21.72 177.103 20.936C176.319 20.136 175.703 19.192 175.255 18.104C174.807 17 174.583 15.792 174.583 14.48C174.583 13.152 174.807 11.944 175.255 10.856C175.719 9.752 176.351 8.816 177.151 8.048C177.967 7.264 178.927 6.656 180.031 6.224C181.135 5.792 182.335 5.576 183.631 5.576C184.207 5.576 184.791 5.632 185.383 5.744C185.975 5.856 186.543 6.024 187.087 6.248C187.631 6.472 188.127 6.752 188.575 7.088C189.023 7.408 189.407 7.784 189.727 8.216L187.855 9.656C187.439 9.08 186.847 8.608 186.079 8.24C185.327 7.856 184.511 7.664 183.631 7.664C182.639 7.664 181.743 7.848 180.943 8.216C180.159 8.568 179.487 9.056 178.927 9.68C178.367 10.304 177.935 11.032 177.631 11.864C177.327 12.68 177.175 13.552 177.175 14.48C177.175 15.44 177.319 16.336 177.607 17.168C177.911 18 178.335 18.728 178.879 19.352C179.439 19.96 180.111 20.44 180.895 20.792C181.695 21.144 182.583 21.32 183.559 21.32C184.519 21.32 185.391 21.128 186.175 20.744C186.959 20.36 187.607 19.8 188.119 19.064L190.015 20.36ZM198.977 15.632C198.977 14.784 198.721 14.16 198.209 13.76C197.697 13.344 197.017 13.136 196.169 13.136C195.529 13.136 194.921 13.264 194.345 13.52C193.785 13.76 193.313 14.072 192.929 14.456L191.729 13.016C192.289 12.488 192.969 12.072 193.769 11.768C194.585 11.464 195.457 11.312 196.385 11.312C197.201 11.312 197.905 11.432 198.497 11.672C199.105 11.896 199.601 12.208 199.985 12.608C200.369 13.008 200.657 13.48 200.849 14.024C201.041 14.568 201.137 15.152 201.137 15.776V20.744C201.137 21.128 201.145 21.536 201.161 21.968C201.193 22.384 201.241 22.728 201.305 23H199.265C199.137 22.456 199.073 21.912 199.073 21.368H199.001C198.585 21.976 198.057 22.448 197.417 22.784C196.793 23.12 196.049 23.288 195.185 23.288C194.737 23.288 194.265 23.224 193.769 23.096C193.289 22.984 192.849 22.792 192.449 22.52C192.049 22.248 191.713 21.888 191.441 21.44C191.185 20.992 191.057 20.44 191.057 19.784C191.057 18.92 191.289 18.24 191.753 17.744C192.217 17.232 192.825 16.848 193.577 16.592C194.329 16.32 195.177 16.144 196.121 16.064C197.065 15.984 198.017 15.944 198.977 15.944V15.632ZM198.425 17.576C197.865 17.576 197.281 17.6 196.673 17.648C196.081 17.696 195.537 17.792 195.041 17.936C194.561 18.08 194.161 18.296 193.841 18.584C193.521 18.872 193.361 19.256 193.361 19.736C193.361 20.072 193.425 20.352 193.553 20.576C193.697 20.8 193.881 20.984 194.105 21.128C194.329 21.272 194.577 21.376 194.849 21.44C195.121 21.488 195.401 21.512 195.689 21.512C196.745 21.512 197.553 21.2 198.113 20.576C198.689 19.936 198.977 19.136 198.977 18.176V17.576H198.425ZM204.905 14.072C204.905 13.768 204.897 13.376 204.881 12.896C204.865 12.416 204.841 11.992 204.809 11.624H206.945C206.977 11.912 207.001 12.248 207.017 12.632C207.033 13 207.041 13.304 207.041 13.544H207.113C207.433 12.872 207.897 12.336 208.505 11.936C209.129 11.52 209.825 11.312 210.593 11.312C210.945 11.312 211.241 11.344 211.481 11.408L211.385 13.496C211.065 13.416 210.721 13.376 210.353 13.376C209.809 13.376 209.337 13.48 208.937 13.688C208.537 13.88 208.201 14.144 207.929 14.48C207.673 14.816 207.481 15.208 207.353 15.656C207.225 16.088 207.161 16.544 207.161 17.024V23H204.905V14.072ZM221.506 16.304C221.49 15.856 221.41 15.44 221.266 15.056C221.138 14.656 220.938 14.312 220.666 14.024C220.41 13.736 220.082 13.512 219.682 13.352C219.298 13.176 218.842 13.088 218.314 13.088C217.834 13.088 217.378 13.176 216.946 13.352C216.53 13.512 216.162 13.736 215.842 14.024C215.538 14.312 215.282 14.656 215.074 15.056C214.882 15.44 214.77 15.856 214.738 16.304H221.506ZM223.786 17.216C223.786 17.344 223.786 17.472 223.786 17.6C223.786 17.728 223.778 17.856 223.762 17.984H214.738C214.754 18.464 214.858 18.92 215.05 19.352C215.258 19.768 215.53 20.136 215.866 20.456C216.202 20.76 216.586 21 217.018 21.176C217.466 21.352 217.938 21.44 218.434 21.44C219.202 21.44 219.866 21.272 220.426 20.936C220.986 20.6 221.426 20.192 221.746 19.712L223.33 20.984C222.722 21.784 222.002 22.376 221.17 22.76C220.354 23.128 219.442 23.312 218.434 23.312C217.57 23.312 216.77 23.168 216.034 22.88C215.298 22.592 214.666 22.192 214.138 21.68C213.61 21.152 213.194 20.52 212.89 19.784C212.586 19.048 212.434 18.232 212.434 17.336C212.434 16.456 212.578 15.648 212.866 14.912C213.17 14.16 213.586 13.52 214.114 12.992C214.642 12.464 215.266 12.056 215.986 11.768C216.706 11.464 217.482 11.312 218.314 11.312C219.146 11.312 219.898 11.448 220.57 11.72C221.258 11.992 221.834 12.384 222.298 12.896C222.778 13.408 223.146 14.032 223.402 14.768C223.658 15.488 223.786 16.304 223.786 17.216Z" fill="#0E412B"/>
<path fill-rule="evenodd" clip-rule="evenodd" d="M39 27L19.3994 0L0 27H2.99903L19.3994 4.30435L36.0325 27H39Z" fill="#0E412B"/>
<path fill-rule="evenodd" clip-rule="evenodd" d="M61 27L42.5224 2L31 18.2698L32.5625 20.254L42.5224 6.36508L57.7188 27H61Z" fill="#0E412B"/>
</svg>
