<svg width="12" height="16" viewBox="0 0 12 16" fill="none" xmlns="http://www.w3.org/2000/svg">
<path d="M11.5182 3.22274C11.2117 2.59018 10.7759 2.02171 10.2197 1.53592C9.08978 0.545736 7.58978 0 6 0C4.41022 0 2.91022 0.545736 1.78029 1.53385C1.22409 2.02171 0.788321 2.58811 0.481752 3.22274C0.162044 3.88424 0 4.58501 0 5.30853V5.86667C0 5.99483 0.109489 6.09819 0.245255 6.09819H1.42774C1.5635 6.09819 1.67299 5.99483 1.67299 5.86667V5.30853C1.67299 3.25168 3.61314 1.57933 6 1.57933C8.38686 1.57933 10.327 3.25168 10.327 5.30853C10.327 6.15194 10.0095 6.94574 9.4073 7.60724C8.81168 8.26253 7.9708 8.73178 7.04015 8.93023C6.50803 9.04393 6.02847 9.32713 5.68905 9.7323C5.35082 10.1361 5.16646 10.6356 5.16569 11.1504V11.7995C5.16569 11.9276 5.27518 12.031 5.41095 12.031H6.59343C6.7292 12.031 6.83869 11.9276 6.83869 11.7995V11.1504C6.83869 10.8258 7.07737 10.5406 7.40803 10.4703C8.68686 10.1974 9.84744 9.54625 10.6774 8.63669C11.0956 8.17571 11.4219 7.66305 11.6474 7.10698C11.8818 6.53023 12 5.92455 12 5.30853C12 4.58501 11.838 3.88217 11.5182 3.22274ZM6 13.6848C5.32336 13.6848 4.77372 14.2036 4.77372 14.8424C4.77372 15.4811 5.32336 16 6 16C6.67664 16 7.22628 15.4811 7.22628 14.8424C7.22628 14.2036 6.67664 13.6848 6 13.6848Z" fill="#0E412B"/>
</svg>
