<svg width="18" height="16" viewBox="0 0 18 16" fill="none" xmlns="http://www.w3.org/2000/svg">
<path d="M8.99998 15.1099C8.7722 15.1099 8.5526 15.0273 8.38146 14.8774C7.73509 14.3123 7.11193 13.7811 6.56212 13.3126L6.55932 13.3102C4.94738 11.9365 3.55542 10.7502 2.58691 9.58167C1.50427 8.27527 1 7.03662 1 5.68347C1 4.36877 1.4508 3.15588 2.26928 2.26807C3.09753 1.36975 4.234 0.875 5.46972 0.875C6.3933 0.875 7.23912 1.16699 7.98363 1.7428C8.35936 2.03345 8.69994 2.38916 8.99998 2.80408C9.30015 2.38916 9.64061 2.03345 10.0165 1.7428C10.761 1.16699 11.6068 0.875 12.5304 0.875C13.766 0.875 14.9026 1.36975 15.7308 2.26807C16.5493 3.15588 17 4.36877 17 5.68347C17 7.03662 16.4958 8.27527 15.4132 9.58154C14.4447 10.7502 13.0528 11.9364 11.4411 13.3099C10.8904 13.7792 10.2662 14.3112 9.61839 14.8777C9.44737 15.0273 9.22765 15.1099 8.99998 15.1099ZM5.46972 1.81226C4.49889 1.81226 3.60705 2.19971 2.95825 2.90332C2.2998 3.61755 1.93713 4.60486 1.93713 5.68347C1.93713 6.82153 2.3601 7.83936 3.30847 8.98364C4.22509 10.0897 5.58849 11.2516 7.1671 12.5969L7.17003 12.5994C7.72191 13.0697 8.34752 13.6029 8.99864 14.1722C9.65367 13.6018 10.2803 13.0677 10.8332 12.5967C12.4117 11.2513 13.775 10.0897 14.6916 8.98364C15.6399 7.83936 16.0628 6.82153 16.0628 5.68347C16.0628 4.60486 15.7002 3.61755 15.0417 2.90332C14.393 2.19971 13.5011 1.81226 12.5304 1.81226C11.8192 1.81226 11.1662 2.03833 10.5897 2.48413C10.0759 2.88159 9.718 3.38403 9.50816 3.7356C9.40025 3.91638 9.21031 4.02429 8.99998 4.02429C8.78966 4.02429 8.59972 3.91638 8.49181 3.7356C8.28209 3.38403 7.92418 2.88159 7.41027 2.48413C6.83373 2.03833 6.18078 1.81226 5.46972 1.81226Z" fill="#FF9393" stroke="#FF9393" stroke-width="1"/>
</svg>
