<svg width="22" height="19" viewBox="0 0 22 19" fill="none" xmlns="http://www.w3.org/2000/svg">
<path d="M11 18.8317C10.6963 18.8317 10.4035 18.7234 10.1753 18.5266C9.31347 17.7848 8.48258 17.0877 7.74951 16.4728L7.74576 16.4696C5.59652 14.6667 3.74056 13.1097 2.44922 11.5759C1.00571 9.86129 0.333344 8.23557 0.333344 6.45956C0.333344 4.73402 0.934417 3.1421 2.02572 1.97684C3.13005 0.797798 4.64535 0.148438 6.29297 0.148438C7.52441 0.148438 8.65217 0.531677 9.64485 1.28742C10.1458 1.6689 10.5999 2.13577 11 2.68035C11.4002 2.13577 11.8542 1.6689 12.3553 1.28742C13.348 0.531677 14.4757 0.148438 15.7072 0.148438C17.3546 0.148438 18.8701 0.797798 19.9744 1.97684C21.0657 3.1421 21.6666 4.73402 21.6666 6.45956C21.6666 8.23557 20.9944 9.86129 19.5509 11.5758C18.2596 13.1097 16.4038 14.6665 14.2549 16.4693C13.5205 17.0852 12.6883 17.7834 11.8245 18.527C11.5965 18.7234 11.3035 18.8317 11 18.8317ZM6.29297 1.37859C4.99854 1.37859 3.80941 1.88712 2.94434 2.81061C2.06641 3.74804 1.58285 5.04388 1.58285 6.45956C1.58285 7.95326 2.14682 9.28915 3.4113 10.791C4.63347 12.2428 6.45133 13.7677 8.55615 15.5335L8.56005 15.5367C9.29589 16.154 10.13 16.8538 10.9982 17.6011C11.8716 16.8524 12.707 16.1514 13.4443 15.5331C15.549 13.7674 17.3667 12.2428 18.5888 10.791C19.8532 9.28915 20.4171 7.95326 20.4171 6.45956C20.4171 5.04388 19.9336 3.74804 19.0556 2.81061C18.1907 1.88712 17.0014 1.37859 15.7072 1.37859C14.7589 1.37859 13.8883 1.67531 13.1196 2.26042C12.4346 2.78209 11.9573 3.44154 11.6776 3.90297C11.5337 4.14025 11.2804 4.28188 11 4.28188C10.7196 4.28188 10.4663 4.14025 10.3224 3.90297C10.0428 3.44154 9.56559 2.78209 8.88036 2.26042C8.11165 1.67531 7.24104 1.37859 6.29297 1.37859Z" fill="#FF9393" stroke="#FF9393" stroke-width="0.2"/>
</svg>
