<svg width="22" height="19" viewBox="0 0 22 19" fill="none" xmlns="http://www.w3.org/2000/svg">
<path d="M5.88377 8.39548C5.84737 8.39548 5.81814 8.42549 5.81909 8.46188L6.04166 16.9739C6.05637 17.5362 5.60453 18 5.042 18H2C1.44771 18 1 17.5523 1 17V2C1 1.44772 1.44772 1 2 1H7.37012C7.80517 1 8.19031 1.28128 8.32269 1.6957L11.0058 10.095C11.016 10.1268 11.0454 10.1483 11.0787 10.1483V10.1483C11.1132 10.1483 11.1433 10.1253 11.1525 10.0922L13.4682 1.73304C13.5882 1.29988 13.9824 1 14.4319 1H20C20.5523 1 21 1.44772 21 2V17C21 17.5523 20.5523 18 20 18H16.7429C16.1841 18 15.7337 17.542 15.743 16.9833L15.8847 8.51213C15.8854 8.47261 15.8572 8.43848 15.8182 8.43165V8.43165C15.7785 8.42469 15.7398 8.44823 15.7277 8.48668L12.9553 17.3001C12.8243 17.7166 12.4381 18 12.0014 18H9.63718C9.19862 18 8.81124 17.7143 8.68176 17.2952L5.9456 8.44108C5.93722 8.41397 5.91215 8.39548 5.88377 8.39548V8.39548Z" stroke="#B6B6B6" stroke-width="1.3"/>
</svg>
