<svg width="22" height="22" viewBox="0 0 22 22" fill="none" xmlns="http://www.w3.org/2000/svg">
<path d="M16.7143 12.4286C15.2966 12.4286 14.0473 13.1284 13.2667 14.192L9.36643 12.2414C9.4872 11.8458 9.57143 11.4345 9.57143 11C9.57143 10.5654 9.4872 10.154 9.36643 9.75852L13.2667 7.80791C14.0473 8.87157 15.2966 9.57139 16.7143 9.57139C19.0776 9.57139 21 7.64894 21 5.28568C21 2.92241 19.0776 1 16.7143 1C14.351 1 12.4286 2.92245 12.4286 5.28572C12.4286 5.72027 12.5129 6.13156 12.6337 6.52709L8.73322 8.47779C7.95265 7.41412 6.70335 6.7143 5.28568 6.7143C2.92241 6.7143 1 8.63671 1 11C1 13.3633 2.92241 15.2857 5.28572 15.2857C6.7034 15.2857 7.95269 14.5859 8.73326 13.5223L12.6336 15.4729C12.5128 15.8684 12.4286 16.2797 12.4286 16.7143C12.4286 19.0776 14.351 21 16.7143 21C19.0776 21 21 19.0776 21 16.7143C21 14.3511 19.0776 12.4286 16.7143 12.4286ZM16.7143 2.42859C18.2901 2.42859 19.5714 3.71069 19.5714 5.28572C19.5714 6.86079 18.29 8.14285 16.7143 8.14285C15.1385 8.14285 13.8572 6.86074 13.8572 5.28572C13.8572 3.71069 15.1385 2.42859 16.7143 2.42859ZM5.28572 13.8572C3.70994 13.8572 2.42859 12.575 2.42859 11C2.42859 9.42495 3.70998 8.14289 5.28572 8.14289C6.86149 8.14289 8.14285 9.42499 8.14285 11C8.14285 12.575 6.86149 13.8572 5.28572 13.8572ZM16.7143 19.5714C15.1385 19.5714 13.8572 18.2893 13.8572 16.7143C13.8572 15.1393 15.1385 13.8572 16.7143 13.8572C18.2901 13.8572 19.5714 15.1393 19.5714 16.7143C19.5714 18.2894 18.2901 19.5714 16.7143 19.5714Z" fill="#13B772" stroke="white" stroke-width="0.4"/>
</svg>
