<svg width="20" height="14" viewBox="0 0 20 14" fill="none" xmlns="http://www.w3.org/2000/svg">
<path d="M18.0645 0.225464H1.93548C0.868266 0.225464 0 1.09369 0 2.16095V11.8384C0 12.9056 0.868266 13.7738 1.93548 13.7738H18.0645C19.1317 13.7738 20 12.9056 20 11.8384V2.16095C20 1.09369 19.1317 0.225464 18.0645 0.225464ZM14.885 12.4835H5.115C4.83125 10.5086 3.26516 8.9426 1.29032 8.65885V5.34046C3.2652 5.05671 4.83125 3.49067 5.115 1.51579H14.885C15.1687 3.49067 16.7348 5.05671 18.7097 5.34046V8.65885C16.7348 8.9426 15.1687 10.5086 14.885 12.4835ZM18.7097 2.16095V4.03151C17.4476 3.77429 16.4512 2.77788 16.194 1.51579H18.0645C18.4202 1.51579 18.7097 1.80522 18.7097 2.16095ZM1.93548 1.51579H3.80605C3.54883 2.77788 2.55242 3.77429 1.29032 4.03151V2.16095C1.29032 1.80522 1.57976 1.51579 1.93548 1.51579ZM1.29032 11.8384V9.9678C2.55242 10.225 3.54883 11.2214 3.80605 12.4835H1.93548C1.57976 12.4835 1.29032 12.1941 1.29032 11.8384ZM18.0645 12.4835H16.194C16.4512 11.2214 17.4476 10.225 18.7097 9.9678V11.8384C18.7097 12.1941 18.4202 12.4835 18.0645 12.4835ZM10 3.45127C8.04343 3.45127 6.45161 5.04308 6.45161 6.99966C6.45161 8.95623 8.04343 10.548 10 10.548C11.9566 10.548 13.5484 8.95623 13.5484 6.99966C13.5484 5.04308 11.9566 3.45127 10 3.45127ZM10 9.25772C8.75492 9.25772 7.74194 8.24478 7.74194 6.99966C7.74194 5.75454 8.75492 4.74159 10 4.74159C11.2451 4.74159 12.2581 5.75454 12.2581 6.99966C12.2581 8.24478 11.2451 9.25772 10 9.25772ZM5.48387 6.99966C5.48387 7.35599 5.195 7.64482 4.83871 7.64482H4.51613C4.15984 7.64482 3.87097 7.35599 3.87097 6.99966C3.87097 6.64333 4.15984 6.3545 4.51613 6.3545H4.83871C5.195 6.3545 5.48387 6.64333 5.48387 6.99966ZM16.129 6.99966C16.129 7.35599 15.8402 7.64482 15.4839 7.64482H15.1613C14.805 7.64482 14.5161 7.35599 14.5161 6.99966C14.5161 6.64333 14.805 6.3545 15.1613 6.3545H15.4839C15.8402 6.3545 16.129 6.64333 16.129 6.99966Z" fill="#13B772"/>
</svg>
