<svg width="18" height="20" viewBox="0 0 18 20" fill="none" xmlns="http://www.w3.org/2000/svg">
<path d="M17.4741 5.42445L17.4738 5.40539C17.4643 4.90678 17.4554 4.43582 17.4554 3.98271C17.4554 3.29632 16.897 2.73791 16.2106 2.73791C13.5547 2.73791 11.539 1.9807 9.86703 0.354965C9.38041 -0.118296 8.61797 -0.118335 8.13139 0.354926C6.45945 1.9807 4.44396 2.73791 1.78851 2.73791C1.10211 2.73791 0.543704 3.29632 0.543704 3.98271C0.543704 4.44551 0.534603 4.92115 0.524956 5.42484C0.48004 7.77615 0.424148 10.7024 1.40617 13.3587C1.94615 14.8193 2.76374 16.0885 3.83626 17.1313C5.05779 18.3189 6.65771 19.261 8.59141 19.9313C8.72292 19.9769 8.86009 20 8.99917 20C9.13841 20 9.27566 19.9768 9.40685 19.9313C11.3408 19.261 12.9409 18.3189 14.1625 17.1312C15.2351 16.0884 16.0528 14.8191 16.5928 13.3585C17.5749 10.7021 17.519 7.77576 17.4741 5.42445ZM15.4937 12.9521C14.4581 15.7532 12.3415 17.674 9.02272 18.8243C9.00757 18.8296 8.99093 18.8297 8.97523 18.8242C5.65701 17.674 3.54063 15.7534 2.50514 12.9524C1.59986 10.5036 1.65114 7.81731 1.69641 5.44722C1.70618 4.93787 1.71539 4.45676 1.71539 3.98271C1.71539 3.94245 1.74816 3.90964 1.78847 3.90964C4.76853 3.90964 7.04359 3.04705 8.94824 1.19494C8.9625 1.18107 8.98081 1.17412 8.99913 1.17412C9.01745 1.17412 9.03581 1.18111 9.0501 1.19498C10.9549 3.04705 13.2301 3.90964 16.2105 3.90964C16.2508 3.90964 16.2836 3.94245 16.2836 3.98271C16.2836 4.44695 16.2926 4.9233 16.3022 5.42761L16.3026 5.44675V5.44679C16.3479 7.81692 16.3992 10.5033 15.4937 12.9521Z" fill="#48BBDF"/>
<path d="M12.6398 8.0505H10.7547V6.16515C10.7547 5.8416 10.4924 5.57928 10.1689 5.57928H7.83063C7.50708 5.57928 7.24477 5.8416 7.24477 6.16515V8.0505H5.3593C5.03575 8.0505 4.77344 8.31281 4.77344 8.63636V10.9746C4.77344 11.2981 5.03575 11.5605 5.3593 11.5605H7.24477V13.4458C7.24477 13.7693 7.50708 14.0316 7.83063 14.0316H10.1689C10.4924 14.0316 10.7547 13.7693 10.7547 13.4458V11.5605H12.6399C12.9634 11.5605 13.2257 11.2981 13.2257 10.9746V8.63636C13.2257 8.31277 12.9634 8.0505 12.6398 8.0505ZM12.054 10.3887H10.1689C9.8453 10.3887 9.58299 10.651 9.58299 10.9746V12.8599H8.4165V10.9746C8.4165 10.651 8.15419 10.3887 7.83063 10.3887H5.94517V9.22223H7.83063C8.15419 9.22223 8.4165 8.95992 8.4165 8.63636V6.75101H9.58299V8.63636C9.58299 8.95992 9.8453 9.22223 10.1689 9.22223H12.054V10.3887H12.054Z" fill="#48BBDF"/>
</svg>
