<svg width="20" height="14" viewBox="0 0 20 14" fill="none" xmlns="http://www.w3.org/2000/svg">
<path d="M19.9245 6.66625C18.252 3.16079 14.4489 0 10 0C4.9942 0 1.39603 3.89846 0.075531 6.66625C-0.025177 6.87741 -0.025177 7.12259 0.075531 7.33375C1.74805 10.8392 5.55115 14 10 14C15.0058 14 18.604 10.1014 19.9245 7.33375C20.0252 7.12259 20.0252 6.87741 19.9245 6.66625ZM10 12.4444C6.40076 12.4444 3.4166 10.083 1.66611 7C3.40927 3.9296 6.3916 1.55556 10 1.55556C13.5989 1.55556 16.5834 3.91669 18.3339 7C16.5907 10.0702 13.6084 12.4444 10 12.4444ZM10 3.11111C7.84607 3.11111 6.09375 4.85564 6.09375 7C6.09375 9.14436 7.84607 10.8889 10 10.8889C12.1539 10.8889 13.9062 9.14436 13.9062 7C13.9062 4.85564 12.1539 3.11111 10 3.11111ZM10 9.33333C8.70773 9.33333 7.65625 8.28652 7.65625 7C7.65625 5.71333 8.70773 4.66667 10 4.66667C11.2924 4.66667 12.3438 5.71333 12.3438 7C12.3438 8.28652 11.2924 9.33333 10 9.33333Z" fill="#2B2D2C"/>
<path d="M10 9.33333C8.70773 9.33333 7.65625 8.28652 7.65625 7C7.65625 5.71333 8.70773 4.66667 10 4.66667C11.2924 4.66667 12.3438 5.71333 12.3438 7C12.3438 8.28652 11.2924 9.33333 10 9.33333Z" fill="#2B2D2C"/>
</svg>
