<svg width="21" height="19" viewBox="0 0 21 19" fill="none" xmlns="http://www.w3.org/2000/svg">
<path d="M10.0391 18.9062C9.75433 18.9062 9.47983 18.8019 9.2659 18.6124C8.45795 17.8977 7.67899 17.2261 6.99173 16.6336L6.98822 16.6305C4.9733 14.8936 3.23334 13.3935 2.02271 11.9158C0.669403 10.2639 0.0390625 8.69763 0.0390625 6.98657C0.0390625 5.32413 0.60257 3.79043 1.62567 2.66778C2.66098 1.53186 4.08157 0.90625 5.62622 0.90625C6.7807 0.90625 7.83798 1.27547 8.76862 2.00358C9.23828 2.37111 9.664 2.82091 10.0391 3.34557C10.4143 2.82091 10.8398 2.37111 11.3097 2.00358C12.2403 1.27547 13.2976 0.90625 14.4521 0.90625C15.9966 0.90625 17.4173 1.53186 18.4526 2.66778C19.4757 3.79043 20.0391 5.32413 20.0391 6.98657C20.0391 8.69763 19.4089 10.2639 18.0556 11.9157C16.8449 13.3935 15.1051 14.8934 13.0905 16.6302C12.402 17.2236 11.6219 17.8963 10.8121 18.6127C10.5983 18.8019 10.3236 18.9062 10.0391 18.9062ZM5.62622 2.09141C4.41269 2.09141 3.29788 2.58134 2.48688 3.47106C1.66382 4.37421 1.21048 5.62266 1.21048 6.98657C1.21048 8.42565 1.7392 9.71268 2.92465 11.1596C4.07021 12.558 5.77403 14.0269 7.74681 15.7277L7.74796 15.7286L7.75162 15.7317C8.44147 16.3265 9.22348 17.0007 10.0374 17.7206C10.8562 16.9993 11.6394 16.324 12.3306 15.7283C12.3324 15.7268 12.3342 15.7253 12.336 15.7237C14.3068 14.0245 16.0089 12.557 17.1536 11.1596C18.3389 9.71268 18.8676 8.42565 18.8676 6.98657C18.8676 5.62266 18.4143 4.37421 17.5912 3.47106C16.7804 2.58134 15.6654 2.09141 14.4521 2.09141C13.5631 2.09141 12.7469 2.37728 12.0262 2.941C11.384 3.44359 10.9366 4.07893 10.6743 4.52348C10.5394 4.75208 10.302 4.88853 10.0391 4.88853C9.77615 4.88853 9.53873 4.75208 9.40384 4.52348C9.14169 4.07893 8.69431 3.44359 8.05191 2.941C7.33124 2.37728 6.51505 2.09141 5.62622 2.09141Z" fill="#FF695D"/>
<path d="M5.62622 2.09141C4.41269 2.09141 3.29788 2.58134 2.48688 3.47106C1.66382 4.37421 1.21048 5.62266 1.21048 6.98657C1.21048 8.42565 1.7392 9.71268 2.92465 11.1596C4.07021 12.558 5.77403 14.0269 7.74681 15.7277L7.74796 15.7286L7.75162 15.7317C8.44147 16.3265 9.22348 17.0007 10.0374 17.7206C10.8562 16.9993 11.6394 16.324 12.3306 15.7283L12.336 15.7237C14.3068 14.0245 16.0089 12.557 17.1536 11.1596C18.3389 9.71268 18.8676 8.42565 18.8676 6.98657C18.8676 5.62266 18.4143 4.37421 17.5912 3.47106C16.7804 2.58134 15.6654 2.09141 14.4521 2.09141C13.5631 2.09141 12.7469 2.37728 12.0262 2.941C11.384 3.44359 10.9366 4.07893 10.6743 4.52348C10.5394 4.75208 10.302 4.88853 10.0391 4.88853C9.77615 4.88853 9.53873 4.75208 9.40384 4.52348C9.14169 4.07893 8.69431 3.44359 8.05191 2.941C7.33124 2.37728 6.51505 2.09141 5.62622 2.09141Z" fill="#FF695D"/>
</svg>
