<svg width="18" height="18" viewBox="0 0 18 18" fill="none" xmlns="http://www.w3.org/2000/svg">
<g clip-path="url(#clip0)">
<path d="M16.2894 1.71155C14.0074 -0.570516 10.2942 -0.570516 8.01221 1.71155C6.51223 3.21152 5.96731 5.37282 6.4981 7.36429L0.172434 13.6899C0.0626758 13.7997 0.000976562 13.9486 0.000976562 14.1038V17.4147C0.000976562 17.7379 0.263031 18 0.586258 18H3.89717C4.05238 18 4.20123 17.9383 4.31099 17.8285L5.13871 17.0008C5.24847 16.891 5.31013 16.7422 5.31013 16.587V15.5168H6.38029C6.5355 15.5168 6.68435 15.4551 6.79411 15.3454L7.62187 14.5176C7.73162 14.4079 7.79329 14.259 7.79329 14.1038V13.0337H8.86344C9.01866 13.0337 9.16751 12.972 9.27727 12.8622L10.6365 11.5029C12.6282 12.0338 14.7893 11.4887 16.2893 9.9888C18.5714 7.70681 18.5714 3.99364 16.2894 1.71155ZM15.4617 9.16105C14.1977 10.4251 12.3562 10.8566 10.6558 10.287C10.4453 10.2164 10.213 10.2711 10.056 10.428L8.62111 11.863H7.20811C6.88489 11.863 6.62283 12.125 6.62283 12.4483V13.8613L6.13792 14.3462H4.72492C4.40169 14.3462 4.13964 14.6082 4.13964 14.9315V16.3445L3.6548 16.8294H1.17157V14.3462L7.57286 7.94493C7.72983 7.78795 7.7845 7.55568 7.71398 7.34516C7.14441 5.64479 7.57585 3.80331 8.83989 2.53923C10.6656 0.713637 13.636 0.713602 15.4617 2.53923C17.2873 4.36489 17.2873 7.33546 15.4617 9.16105Z" fill="#13B772"/>
<path d="M14.633 3.36629C13.7202 2.45342 12.2349 2.45342 11.3221 3.36629C10.4093 4.27912 10.4093 5.76433 11.3221 6.6772C12.2349 7.59003 13.7202 7.59007 14.633 6.6772C15.5459 5.7644 15.5459 4.27916 14.633 3.36629ZM13.8053 5.84945C13.3489 6.30581 12.6063 6.30581 12.1499 5.84945C11.6935 5.39305 11.6935 4.65041 12.1499 4.19397C12.6062 3.73761 13.3489 3.73758 13.8053 4.19397C14.2617 4.65041 14.2617 5.39305 13.8053 5.84945Z" fill="#13B772"/>
</g>
<defs>
<clipPath id="clip0">
<rect width="18" height="18" fill="white"/>
</clipPath>
</defs>
</svg>
