<svg width="32" height="32" viewBox="0 0 32 32" fill="none" xmlns="http://www.w3.org/2000/svg">
<path d="M25 11.75H22.7477V6.61062C22.7477 2.9655 19.7196 0 15.9977 0C12.2758 0 9.24769 2.9655 9.24769 6.61062V11.75H7C4.93225 11.75 3.25 13.4323 3.25 15.5V28.25C3.25 30.3177 4.93225 32 7 32H25C27.0677 32 28.75 30.3177 28.75 28.25V15.5C28.75 13.4323 27.0677 11.75 25 11.75ZM11.7477 6.61062C11.7477 4.344 13.6543 2.5 15.9977 2.5C18.3411 2.5 20.2477 4.344 20.2477 6.61062V11.75H11.7477V6.61062ZM26.25 28.25C26.25 28.9393 25.6893 29.5 25 29.5H7C6.31075 29.5 5.75 28.9393 5.75 28.25V15.5C5.75 14.8108 6.31075 14.25 7 14.25H25C25.6893 14.25 26.25 14.8108 26.25 15.5V28.25Z" fill="white"/>
<path d="M16 17.875C14.7228 17.875 13.6875 18.9103 13.6875 20.1875C13.6875 21.003 14.11 21.7194 14.7477 22.1311V24.875C14.7477 25.5653 15.3073 26.125 15.9977 26.125C16.688 26.125 17.2477 25.5653 17.2477 24.875V22.1341C17.8879 21.7228 18.3125 21.005 18.3125 20.1875C18.3125 18.9103 17.2772 17.875 16 17.875Z" fill="white"/>
</svg>
