<svg width="20" height="20" viewBox="0 0 20 20" fill="none" xmlns="http://www.w3.org/2000/svg">
<path d="M17.069 2.92924C13.163 -0.976772 6.84096 -0.977358 2.9344 2.92924C-0.206607 6.07021 -0.800149 10.7406 1.05683 14.46L0.0273232 18.9884C-0.106491 19.577 0.421025 20.1048 1.00984 19.9709L5.53828 18.9414C12.1226 22.2288 19.9965 17.4695 19.9965 9.99659C19.9965 7.32696 18.9568 4.81706 17.069 2.92924V2.92924ZM12.0866 12.4855H5.83183C5.37843 12.4855 5.01088 12.1179 5.01088 11.6645C5.01088 11.2111 5.37843 10.8436 5.83183 10.8436H12.0866C12.54 10.8436 12.9076 11.2111 12.9076 11.6645C12.9076 12.1179 12.54 12.4855 12.0866 12.4855ZM14.1716 9.14958H5.83183C5.37843 9.14958 5.01088 8.78203 5.01088 8.32863C5.01088 7.87524 5.37843 7.50769 5.83183 7.50769H14.1716C14.625 7.50769 14.9925 7.87524 14.9925 8.32863C14.9925 8.78203 14.625 9.14958 14.1716 9.14958Z" fill="white"/>
</svg>
