<svg width="12" height="8" viewBox="0 0 12 8" fill="none" xmlns="http://www.w3.org/2000/svg">
<path d="M4.73836 7.94215C4.62898 7.94237 4.52062 7.92099 4.41952 7.87923C4.31841 7.83747 4.22655 7.77616 4.1492 7.69881L0.614197 4.16298C0.534553 4.08616 0.471004 3.99426 0.42726 3.89262C0.383515 3.79098 0.360451 3.68165 0.359412 3.571C0.358373 3.46035 0.37938 3.3506 0.421209 3.24816C0.463037 3.14572 0.524848 3.05263 0.603036 2.97433C0.681224 2.89604 0.774222 2.83409 0.876605 2.79212C0.978988 2.75015 1.08871 2.72898 1.19935 2.72987C1.31 2.73075 1.41937 2.75366 1.52107 2.79726C1.62277 2.84086 1.71477 2.90428 1.7917 2.98381L4.73753 5.92965L10.0417 0.627148C10.198 0.470781 10.4099 0.382891 10.631 0.382813C10.852 0.382734 11.0641 0.470475 11.2204 0.626731C11.3768 0.782988 11.4647 0.994962 11.4648 1.21602C11.4649 1.43708 11.3771 1.64911 11.2209 1.80548L5.32753 7.69881C5.25018 7.77616 5.15832 7.83747 5.05721 7.87923C4.95611 7.92099 4.84775 7.94237 4.73836 7.94215Z" fill="#EDFEF7"/>
</svg>
