<svg width="14" height="14" viewBox="0 0 14 14" fill="none" xmlns="http://www.w3.org/2000/svg">
<path d="M1.16675 7.83247L10.4751 7.83247L6.40842 11.8991C6.08342 12.2241 6.08342 12.7575 6.40842 13.0825C6.48551 13.1597 6.57708 13.221 6.6779 13.2628C6.77871 13.3046 6.88678 13.3262 6.99592 13.3262C7.10506 13.3262 7.21313 13.3046 7.31394 13.2628C7.41475 13.221 7.50632 13.1597 7.58342 13.0825L13.0751 7.5908C13.1523 7.51371 13.2136 7.42213 13.2554 7.32132C13.2973 7.22051 13.3188 7.11244 13.3188 7.0033C13.3188 6.89416 13.2973 6.78609 13.2554 6.68528C13.2136 6.58447 13.1523 6.4929 13.0751 6.4158L7.58342 0.924133C7.50627 0.846981 7.41467 0.785782 7.31387 0.744029C7.21307 0.702274 7.10503 0.680784 6.99592 0.680784C6.88681 0.680784 6.77877 0.702274 6.67796 0.744028C6.57716 0.785782 6.48557 0.846981 6.40842 0.924133C6.33127 1.00128 6.27007 1.09288 6.22831 1.19368C6.18656 1.29448 6.16507 1.40253 6.16507 1.51163C6.16507 1.62074 6.18656 1.72878 6.22831 1.82959C6.27007 1.93039 6.33127 2.02198 6.40842 2.09913L10.4751 6.1658L1.16675 6.1658C0.708417 6.1658 0.333417 6.5408 0.333417 6.99913C0.333416 7.45747 0.708416 7.83247 1.16675 7.83247Z" fill="#2B2D2C"/>
</svg>
