<svg width="12" height="22" viewBox="0 0 12 22" fill="none" xmlns="http://www.w3.org/2000/svg">
<path d="M6 1C3.0101 1 0.576874 3.43249 0.576874 6.4232V16.6905C0.576874 17.057 0.873437 17.3536 1.24002 17.3536C1.60637 17.3536 1.90293 17.057 1.90293 16.6905V6.4232C1.90293 4.16413 3.74048 2.3261 6 2.3261C8.25975 2.3261 10.0973 4.16413 10.0973 6.4232V17.0085C10.0973 18.478 8.90138 19.674 7.43155 19.674C7.42063 19.674 7.4108 19.6798 7.39992 19.6804C7.38827 19.6798 7.37917 19.674 7.36756 19.674C5.89785 19.674 4.70197 18.478 4.70197 17.0085V10.6588C4.70197 9.9427 5.28397 9.36066 6 9.36066C6.71618 9.36066 7.29822 9.9427 7.29822 10.6588V16.6905C7.29822 17.057 7.59531 17.3536 7.96117 17.3536C8.32695 17.3536 8.62428 17.057 8.62428 16.6905V10.6588C8.62428 9.21171 7.44713 8.03461 6 8.03461C4.55306 8.03461 3.37591 9.21176 3.37591 10.6588V17.0085C3.37591 19.2091 5.16617 21 7.36752 21C7.37913 21 7.38823 20.9942 7.39988 20.9935C7.4108 20.9942 7.42063 21 7.43151 21C9.63233 21 11.4231 19.2091 11.4231 17.0085V6.4232C11.4231 3.43249 8.98993 1 6 1Z" fill="#D3D3D3" stroke="#D3D3D3" stroke-width="0.2"/>
</svg>
