<svg width="16" height="20" viewBox="0 0 16 20" fill="none" xmlns="http://www.w3.org/2000/svg">
<path d="M15.8672 10.9258C15.2343 9.44141 14.5781 7.98438 13.8711 6.48047C14.5781 5.08984 15.2539 3.88672 15.8672 2.76953C16 2.52734 16.1054 1.84766 15.4062 1.60938C14.414 1.26953 13.3359 1.16016 12.1445 1.16016C10.7031 1.16016 9.2695 1.375 7.88278 1.58203C6.49216 1.78906 5.17966 1.98828 3.85544 1.98828C3.04684 1.98828 2.31247 1.91016 1.62106 1.75781V1.22656C1.62106 0.785156 1.26559 0.429688 0.824188 0.429688C0.382782 0.429688 0.0273132 0.785156 0.0273132 1.22656V18.7734C0.0273132 19.2148 0.382782 19.5703 0.824188 19.5703C1.26559 19.5703 1.62106 19.2148 1.62106 18.7734V12.3477C2.32419 12.4805 3.06247 12.5469 3.85544 12.5469C5.29685 12.5469 6.73044 12.332 8.11716 12.125C9.50388 11.9141 10.8164 11.7188 12.1406 11.7188C13.1758 11.7188 14.082 11.8711 14.9453 12.0977C15.6679 12.2891 16.1992 11.5117 15.8672 10.9258ZM12.1406 10.125C10.6992 10.125 9.2656 10.3398 7.87888 10.5469C6.48825 10.7539 5.17575 10.9531 3.85153 10.9531C3.04294 10.9531 2.30856 10.8789 1.61716 10.7227V3.38672C2.32028 3.51953 3.05856 3.58594 3.85153 3.58594C5.29294 3.58594 6.72653 3.37109 8.11325 3.16406C9.50388 2.95703 10.8164 2.75781 12.1406 2.75781C12.789 2.75781 13.3906 2.80469 13.9609 2.90625C13.4218 3.87891 12.8672 4.93359 12.2695 6.10938C12.1601 6.32812 12.1562 6.58984 12.2617 6.8125C12.8125 7.97266 13.3281 9.10156 13.8281 10.2383C13.289 10.1602 12.7304 10.125 12.1406 10.125Z" fill="#FFC940"/>
</svg>
