<svg width="20" height="16" viewBox="0 0 20 16" fill="none" xmlns="http://www.w3.org/2000/svg">
<path d="M17.5585 0.388672H2.44569C1.09663 0.388672 0 1.4853 0 2.83436V13.1633C0 14.5124 1.09663 15.609 2.44569 15.609H17.5543C18.9034 15.609 20 14.5124 20 13.1633V2.8385C20.0041 1.48944 18.9075 0.388672 17.5585 0.388672ZM18.8868 13.1633C18.8868 13.8958 18.2909 14.4917 17.5585 14.4917H2.44569C1.71322 14.4917 1.11732 13.8958 1.11732 13.1633V2.8385C1.11732 2.10603 1.71322 1.51013 2.44569 1.51013H17.5543C18.2868 1.51013 18.8827 2.10603 18.8827 2.8385V13.1633H18.8868Z" fill="#F44336"/>
<path d="M12.6133 7.87096L17.5046 3.48445C17.7322 3.27754 17.7529 2.92579 17.546 2.69405C17.3391 2.46645 16.9874 2.44576 16.7556 2.65267L10.0103 8.70688L8.69437 7.53163C8.69023 7.52749 8.68609 7.52335 8.68609 7.51921C8.65712 7.49024 8.62816 7.46541 8.59505 7.44058L3.2402 2.64853C3.00846 2.44162 2.65671 2.46231 2.4498 2.69405C2.24289 2.92579 2.26358 3.27754 2.49532 3.48445L7.44463 7.9082L2.51601 12.5223C2.29255 12.7334 2.28013 13.0851 2.49118 13.3127C2.60291 13.4286 2.75189 13.4907 2.90086 13.4907C3.03743 13.4907 3.17399 13.441 3.28158 13.3417L8.28469 8.66136L9.64202 9.87386C9.74961 9.96904 9.88204 10.0146 10.0145 10.0146C10.1469 10.0146 10.2834 9.9649 10.3869 9.86972L11.7815 8.61998L16.7556 13.3458C16.8632 13.4493 17.0039 13.4989 17.1405 13.4989C17.2894 13.4989 17.4343 13.441 17.546 13.3251C17.7571 13.1017 17.7488 12.7458 17.5253 12.5347L12.6133 7.87096Z" fill="#F44336"/>
</svg>
