<svg width="16" height="20" viewBox="0 0 16 20" fill="none" xmlns="http://www.w3.org/2000/svg">
<path d="M15.8672 10.9258C15.2344 9.44141 14.5781 7.98438 13.8711 6.48047C14.5781 5.08984 15.2539 3.88672 15.8672 2.76953C16 2.52734 16.1055 1.84766 15.4063 1.60938C14.4141 1.26953 13.3359 1.16016 12.1445 1.16016C10.7031 1.16016 9.26953 1.375 7.88281 1.58203C6.49219 1.78906 5.17969 1.98828 3.85547 1.98828C3.04688 1.98828 2.3125 1.91016 1.62109 1.75781V1.22656C1.62109 0.785156 1.26563 0.429688 0.824219 0.429688C0.382813 0.429688 0.0273438 0.785156 0.0273438 1.22656V18.7734C0.0273438 19.2148 0.382813 19.5703 0.824219 19.5703C1.26563 19.5703 1.62109 19.2148 1.62109 18.7734V12.3477C2.32422 12.4805 3.0625 12.5469 3.85547 12.5469C5.29688 12.5469 6.73047 12.332 8.11719 12.125C9.50391 11.9141 10.8164 11.7188 12.1406 11.7188C13.1758 11.7188 14.082 11.8711 14.9453 12.0977C15.668 12.2891 16.1992 11.5117 15.8672 10.9258ZM12.1406 10.125C10.7046 10.125 9.27639 10.3382 7.89453 10.5445C7.88932 10.5453 7.88411 10.5461 7.87891 10.5469C7.85295 10.5507 7.82702 10.5546 7.80112 10.5585C6.43928 10.7613 5.15106 10.9531 3.85156 10.9531C3.04297 10.9531 2.30859 10.8789 1.61719 10.7227V3.38672C2.32031 3.51953 3.05859 3.58594 3.85156 3.58594C5.28756 3.58594 6.7158 3.3727 8.09766 3.16639C8.10287 3.16562 8.10808 3.16484 8.11328 3.16406C8.13924 3.1602 8.16517 3.15634 8.19107 3.15248C9.55291 2.94966 10.8411 2.75781 12.1406 2.75781C12.7891 2.75781 13.3906 2.80469 13.9609 2.90625C13.4219 3.87891 12.8672 4.93359 12.2695 6.10938C12.1602 6.32812 12.1563 6.58984 12.2617 6.8125C12.8125 7.97266 13.3281 9.10156 13.8281 10.2383C13.2891 10.1602 12.7305 10.125 12.1406 10.125Z" fill="#FFC940"/>
<path d="M12.1406 10.125C10.7046 10.125 9.27639 10.3382 7.89453 10.5445L7.87891 10.5469L7.80112 10.5585C6.43928 10.7613 5.15106 10.9531 3.85156 10.9531C3.04297 10.9531 2.30859 10.8789 1.61719 10.7227V3.38672C2.32031 3.51953 3.05859 3.58594 3.85156 3.58594C5.28756 3.58594 6.7158 3.3727 8.09766 3.16639L8.11328 3.16406L8.19107 3.15248C9.55291 2.94966 10.8411 2.75781 12.1406 2.75781C12.7891 2.75781 13.3906 2.80469 13.9609 2.90625C13.4219 3.87891 12.8672 4.93359 12.2695 6.10938C12.1602 6.32812 12.1563 6.58984 12.2617 6.8125C12.8125 7.97266 13.3281 9.10156 13.8281 10.2383C13.2891 10.1602 12.7305 10.125 12.1406 10.125Z" fill="#FFC940"/>
</svg>
