<svg width="14" height="14" viewBox="0 0 14 14" fill="none" xmlns="http://www.w3.org/2000/svg">
<path d="M12.8333 6.16753L3.52492 6.16753L7.59158 2.10086C7.91658 1.77586 7.91658 1.24253 7.59158 0.917531C7.51449 0.840278 7.42292 0.778989 7.3221 0.737171C7.22129 0.695353 7.11322 0.673828 7.00408 0.673828C6.89494 0.673828 6.78687 0.695353 6.68606 0.737171C6.58525 0.778989 6.49368 0.840278 6.41658 0.917531L0.924917 6.4092C0.847664 6.48629 0.786374 6.57787 0.744556 6.67868C0.702739 6.77949 0.681213 6.88756 0.681213 6.9967C0.681213 7.10584 0.702739 7.21391 0.744556 7.31472C0.786374 7.41553 0.847664 7.5071 0.924917 7.5842L6.41658 13.0759C6.49374 13.153 6.58533 13.2142 6.68613 13.256C6.78693 13.2977 6.89498 13.3192 7.00408 13.3192C7.11319 13.3192 7.22123 13.2977 7.32204 13.256C7.42284 13.2142 7.51443 13.153 7.59158 13.0759C7.66874 12.9987 7.72994 12.9071 7.77169 12.8063C7.81344 12.7055 7.83493 12.5975 7.83493 12.4884C7.83493 12.3793 7.81344 12.2712 7.77169 12.1704C7.72994 12.0696 7.66874 11.978 7.59158 11.9009L3.52492 7.8342L12.8333 7.8342C13.2916 7.8342 13.6666 7.4592 13.6666 7.00087C13.6666 6.54253 13.2916 6.16753 12.8333 6.16753Z" fill="#2B2D2C"/>
</svg>
