<svg width="14" height="13" viewBox="0 0 14 13" fill="none" xmlns="http://www.w3.org/2000/svg">
<path d="M10.2873 5.76892L6.6665 2.14809C6.49952 1.9752 6.40712 1.74365 6.40921 1.50331C6.4113 1.26296 6.5077 1.03305 6.67766 0.86309C6.84762 0.693133 7.07753 0.596728 7.31788 0.594639C7.55823 0.592551 7.78978 0.684946 7.96266 0.851924L13.1482 6.03751C13.2337 6.12244 13.3015 6.22342 13.3477 6.33464C13.394 6.44586 13.4178 6.56513 13.4178 6.68559C13.4178 6.80605 13.394 6.92532 13.3477 7.03654C13.3015 7.14776 13.2337 7.24874 13.1482 7.33367L7.96266 12.5193C7.8781 12.6068 7.77695 12.6766 7.66512 12.7247C7.55328 12.7727 7.433 12.798 7.31128 12.7991C7.18957 12.8001 7.06886 12.7769 6.95621 12.7308C6.84355 12.6848 6.7412 12.6167 6.65513 12.5306C6.56907 12.4445 6.501 12.3422 6.45491 12.2295C6.40882 12.1169 6.38563 11.9962 6.38668 11.8745C6.38774 11.7528 6.41303 11.6325 6.46107 11.5206C6.50911 11.4088 6.57894 11.3076 6.6665 11.2231L10.2873 7.60226H1.50016C1.25705 7.60226 1.02389 7.50568 0.851982 7.33377C0.680073 7.16186 0.583496 6.9287 0.583496 6.68559C0.583496 6.44247 0.680073 6.20932 0.851982 6.03741C1.02389 5.8655 1.25705 5.76892 1.50016 5.76892H10.2873Z" fill="white"/>
</svg>
