<svg width="13" height="14" viewBox="0 0 13 14" fill="none" xmlns="http://www.w3.org/2000/svg">
<path d="M12.0415 6.20828L3.19859 6.20828L7.06192 2.34494C7.37067 2.03619 7.37067 1.52953 7.06192 1.22078C6.98868 1.14739 6.90169 1.08916 6.80592 1.04943C6.71015 1.00971 6.60748 0.989258 6.5038 0.989258C6.40011 0.989258 6.29745 1.00971 6.20168 1.04943C6.10591 1.08916 6.01891 1.14739 5.94567 1.22078L0.728589 6.43786C0.655198 6.5111 0.596973 6.5981 0.557246 6.69387C0.517519 6.78964 0.49707 6.8923 0.49707 6.99599C0.49707 7.09967 0.517519 7.20233 0.557246 7.2981C0.596973 7.39388 0.655198 7.48087 0.728589 7.55411L5.94567 12.7712C6.01897 12.8445 6.10598 12.9026 6.20174 12.9423C6.29751 12.982 6.40014 13.0024 6.5038 13.0024C6.60745 13.0024 6.71009 12.982 6.80585 12.9423C6.90162 12.9026 6.98863 12.8445 7.06192 12.7712C7.13522 12.6979 7.19336 12.6109 7.23302 12.5151C7.27269 12.4194 7.29311 12.3167 7.29311 12.2131C7.29311 12.1094 7.27269 12.0068 7.23302 11.911C7.19336 11.8153 7.13522 11.7282 7.06192 11.6549L3.19859 7.79161L12.0415 7.79161C12.4769 7.79161 12.8332 7.43536 12.8332 6.99994C12.8332 6.56453 12.4769 6.20828 12.0415 6.20828Z" fill="#13B772"/>
</svg>
