<svg width="13" height="14" viewBox="0 0 13 14" fill="none" xmlns="http://www.w3.org/2000/svg">
<path d="M0.958493 7.79172L9.80141 7.79172L5.93808 11.6551C5.62933 11.9638 5.62933 12.4705 5.93808 12.7792C6.01132 12.8526 6.09831 12.9108 6.19408 12.9506C6.28985 12.9903 6.39252 13.0107 6.4962 13.0107C6.59989 13.0107 6.70255 12.9903 6.79832 12.9506C6.89409 12.9108 6.98109 12.8526 7.05433 12.7792L12.2714 7.56214C12.3448 7.4889 12.403 7.4019 12.4428 7.30613C12.4825 7.21036 12.5029 7.1077 12.5029 7.00401C12.5029 6.90033 12.4825 6.79767 12.4428 6.7019C12.403 6.60612 12.3448 6.51913 12.2714 6.44589L7.05433 1.2288C6.98103 1.15551 6.89402 1.09737 6.79826 1.05771C6.70249 1.01804 6.59986 0.997623 6.4962 0.997623C6.39255 0.997623 6.28991 1.01804 6.19415 1.05771C6.09838 1.09737 6.01137 1.15551 5.93808 1.2288C5.86478 1.3021 5.80664 1.38911 5.76698 1.48488C5.72731 1.58064 5.70689 1.68328 5.70689 1.78693C5.70689 1.89058 5.72731 1.99322 5.76698 2.08898C5.80664 2.18475 5.86478 2.27176 5.93808 2.34506L9.80141 6.20839L0.958493 6.20839C0.523077 6.20839 0.166827 6.56464 0.166827 7.00006C0.166827 7.43547 0.523077 7.79172 0.958493 7.79172Z" fill="#13B772"/>
</svg>
