<svg width="21" height="16" viewBox="0 0 21 16" fill="none" xmlns="http://www.w3.org/2000/svg">
<g>
<path d="M3.74546 15.9198V14.8608C3.74546 14.4548 3.49831 14.1901 3.07467 14.1901C2.86289 14.1901 2.63342 14.2607 2.47455 14.4902C2.35105 14.296 2.17457 14.1901 1.90981 14.1901C1.73324 14.1901 1.55684 14.243 1.41558 14.4372V14.2254H1.04492V15.9198H1.41558V14.9843C1.41558 14.6843 1.57445 14.5431 1.82161 14.5431C2.0686 14.5431 2.19226 14.7019 2.19226 14.9843V15.9198H2.56291V14.9843C2.56291 14.6843 2.73931 14.5431 2.96878 14.5431C3.21594 14.5431 3.33943 14.7019 3.33943 14.9843V15.9198H3.74546ZM9.23459 14.2254H8.63455V13.7136H8.2639V14.2254H7.92854V14.5607H8.26382V15.3374C8.26382 15.7257 8.42269 15.9551 8.84633 15.9551C9.0052 15.9551 9.18161 15.9022 9.30526 15.8316L9.19929 15.5138C9.0934 15.5844 8.96991 15.6021 8.88162 15.6021C8.70514 15.6021 8.63455 15.4962 8.63455 15.3197V14.5607H9.23459V14.2254ZM12.3764 14.19C12.1646 14.19 12.0234 14.296 11.9351 14.4372V14.2254H11.5645V15.9198H11.9351V14.9667C11.9351 14.6843 12.0586 14.5255 12.2881 14.5255C12.3587 14.5255 12.447 14.5431 12.5176 14.5608L12.6235 14.2078C12.5529 14.1901 12.447 14.1901 12.3764 14.1901V14.19ZM7.62848 14.3666C7.45192 14.243 7.20484 14.1901 6.94008 14.1901C6.51652 14.1901 6.23415 14.4019 6.23415 14.7372C6.23415 15.0197 6.44593 15.1785 6.81658 15.2315L6.99306 15.2492C7.18723 15.2844 7.29312 15.3374 7.29312 15.4256C7.29312 15.5491 7.15194 15.6374 6.90478 15.6374C6.65771 15.6374 6.46353 15.5491 6.33996 15.4609L6.16347 15.7433C6.35765 15.8845 6.62241 15.9551 6.88709 15.9551C7.38132 15.9551 7.66378 15.7257 7.66378 15.408C7.66378 15.1079 7.43431 14.949 7.08126 14.8961L6.90478 14.8784C6.74591 14.8607 6.62241 14.8255 6.62241 14.7196C6.62241 14.5961 6.74591 14.5255 6.94008 14.5255C7.15194 14.5255 7.36372 14.6137 7.4696 14.6666L7.62848 14.3666ZM17.4773 14.1901C17.2655 14.1901 17.1243 14.296 17.036 14.4372V14.2254H16.6653V15.9198H17.036V14.9667C17.036 14.6843 17.1596 14.5255 17.389 14.5255C17.4596 14.5255 17.5479 14.5431 17.6185 14.5608L17.7244 14.2078C17.6538 14.1901 17.5479 14.1901 17.4773 14.1901ZM12.747 15.0726C12.747 15.5844 13.1 15.9551 13.6472 15.9551C13.8943 15.9551 14.0708 15.9022 14.2473 15.761L14.0708 15.4609C13.9296 15.5668 13.7884 15.6197 13.6295 15.6197C13.3295 15.6197 13.1177 15.408 13.1177 15.0726C13.1177 14.7549 13.3295 14.5431 13.6295 14.5255C13.7884 14.5255 13.9296 14.5784 14.0708 14.6843L14.2473 14.3843C14.0708 14.243 13.8943 14.1901 13.6472 14.1901C13.1 14.1901 12.747 14.5608 12.747 15.0726ZM16.1712 15.0726V14.2254H15.8005V14.4372C15.677 14.2784 15.5005 14.1901 15.271 14.1901C14.7945 14.1901 14.4238 14.5608 14.4238 15.0726C14.4238 15.5844 14.7945 15.9551 15.271 15.9551C15.5181 15.9551 15.6947 15.8669 15.8005 15.708V15.9198H16.1712V15.0726ZM14.8121 15.0726C14.8121 14.7725 15.0062 14.5255 15.3239 14.5255C15.624 14.5255 15.8358 14.7549 15.8358 15.0726C15.8358 15.3727 15.624 15.6197 15.3239 15.6197C15.0062 15.602 14.8121 15.3727 14.8121 15.0726ZM10.3819 14.1901C9.8877 14.1901 9.53465 14.5431 9.53465 15.0726C9.53465 15.6021 9.88762 15.9551 10.3995 15.9551C10.6466 15.9551 10.8938 15.8845 11.0879 15.7257L10.9114 15.4609C10.7702 15.5668 10.5937 15.6374 10.4172 15.6374C10.1878 15.6374 9.95829 15.5315 9.9053 15.2314H11.1585V15.0903C11.1762 14.5431 10.8585 14.1901 10.3818 14.1901H10.3819ZM10.3819 14.5078C10.6113 14.5078 10.7703 14.649 10.8055 14.9138H9.92299C9.95829 14.6843 10.1172 14.5078 10.3819 14.5078ZM19.5777 15.0726V13.5547H19.207V14.4372C19.0834 14.2784 18.907 14.1901 18.6775 14.1901C18.2009 14.1901 17.8303 14.5608 17.8303 15.0726C17.8303 15.5844 18.2009 15.9551 18.6775 15.9551C18.9246 15.9551 19.1011 15.8669 19.207 15.708V15.9198H19.5777V15.0726ZM18.2186 15.0726C18.2186 14.7725 18.4127 14.5255 18.7305 14.5255C19.0305 14.5255 19.2423 14.7549 19.2423 15.0726C19.2423 15.3727 19.0305 15.6197 18.7305 15.6197C18.4127 15.602 18.2186 15.3727 18.2186 15.0726ZM5.82812 15.0726V14.2254H5.45746V14.4372C5.33389 14.2784 5.1574 14.1901 4.92794 14.1901C4.45139 14.1901 4.08074 14.5608 4.08074 15.0726C4.08074 15.5844 4.45139 15.9551 4.92794 15.9551C5.17509 15.9551 5.35157 15.8669 5.45746 15.708V15.9198H5.82812V15.0726ZM4.45139 15.0726C4.45139 14.7725 4.64557 14.5255 4.96323 14.5255C5.26329 14.5255 5.47515 14.7549 5.47515 15.0726C5.47515 15.3727 5.26329 15.6197 4.96323 15.6197C4.64557 15.602 4.45139 15.3727 4.45139 15.0726Z" fill="black"/>
<path d="M7.50488 1.35938H13.0647V11.3494H7.50488V1.35938Z" fill="#FF5F00"/>
<path d="M7.8583 6.35409C7.8583 4.32434 8.81138 2.52398 10.2763 1.35904C9.19973 0.511839 7.84069 0 6.35808 0C2.84555 0 0.00390625 2.84165 0.00390625 6.35409C0.00390625 9.86645 2.84555 12.7082 6.358 12.7082C7.84061 12.7082 9.19965 12.1963 10.2763 11.3491C8.81138 10.2018 7.8583 8.38384 7.8583 6.35409Z" fill="#EB001B"/>
<path d="M20.5663 6.35409C20.5663 9.86645 17.7247 12.7082 14.2123 12.7082C12.7296 12.7082 11.3706 12.1963 10.2939 11.3491C11.7766 10.1842 12.712 8.38384 12.712 6.35409C12.712 4.32434 11.7589 2.52398 10.2939 1.35904C11.3705 0.511839 12.7296 0 14.2123 0C17.7247 0 20.5664 2.85934 20.5664 6.35409H20.5663Z" fill="#F79E1B"/>
</g>
<defs>
<clipPath id="clip0">
<rect width="20.59" height="16" fill="white"/>
</clipPath>
</defs>
</svg>
