<svg width="25" height="8" viewBox="0 0 25 8" fill="none" xmlns="http://www.w3.org/2000/svg">
<path d="M12.9292 2.54803C12.915 3.658 13.9315 4.27738 14.6972 4.64567C15.4839 5.0235 15.7481 5.26581 15.745 5.60374C15.7392 6.12085 15.1175 6.34909 14.5358 6.35795C13.5208 6.37347 12.9307 6.0875 12.4616 5.87121L12.0959 7.55979C12.5666 7.77386 13.4382 7.96056 14.342 7.96875C16.4636 7.96875 17.8515 6.93511 17.8591 5.33251C17.8674 3.29858 15.0087 3.186 15.0282 2.27689C15.035 2.00123 15.3015 1.70706 15.8855 1.63227C16.1745 1.59449 16.9724 1.56557 17.8771 1.97675L18.2322 0.343016C17.7457 0.168172 17.1204 0.000750542 16.3419 0.000750542C14.345 0.000750542 12.9406 1.04846 12.9292 2.54803ZM21.6441 0.141473C21.2567 0.141473 20.9302 0.364509 20.7845 0.706774L17.754 7.84875H19.874L20.2958 6.698H22.8864L23.1312 7.84875H24.9997L23.3691 0.141473H21.6441ZM21.9407 2.2235L22.5525 5.11767H20.8769L21.9407 2.2235ZM10.3589 0.14157L8.68778 7.84865H10.708L12.3783 0.141377H10.3589V0.14157ZM7.37032 0.141377L5.26761 5.38735L4.41704 0.926919C4.31723 0.428991 3.9231 0.141473 3.48541 0.141473H0.0481439L0 0.36528C0.705655 0.516413 1.5074 0.760172 1.99314 1.02099C2.2904 1.18032 2.37517 1.31959 2.47282 1.6982L4.08384 7.84875H6.21867L9.49168 0.141473H7.37032" fill="url(#paint0_linear)"/>
<defs>
<linearGradient id="paint0_linear" x1="11.4934" y1="8.12859" x2="11.721" y2="-0.0548319" gradientUnits="userSpaceOnUse">
<stop stop-color="#222357"/>
<stop offset="1" stop-color="#254AA5"/>
</linearGradient>
</defs>
</svg>
