<svg width="20" height="20" viewBox="0 0 20 20" fill="none" xmlns="http://www.w3.org/2000/svg">
<path d="M7.58715 7.60421L7.58694 7.60442C7.34213 7.86387 7.34735 8.27215 7.601 8.5258L11.4886 12.4134C11.7449 12.6697 12.1665 12.6714 12.4257 12.4123L12.5055 12.3324C13.6469 11.1911 15.5948 11.0937 16.8461 12.1188L18.8582 13.7673L18.9533 13.6513L18.8582 13.7673C20.0998 14.7845 20.1878 16.5228 19.054 17.6565L18.7686 17.942C16.694 20.0165 12.9669 20.4678 10.457 18.9492L10.4482 18.9439L10.4389 18.9398L10.4388 18.9398L10.4388 18.9398L10.4388 18.9398L10.4379 18.9394L10.4339 18.9377L10.4166 18.9298C10.4009 18.9226 10.377 18.9115 10.3452 18.8961C10.2815 18.8652 10.1862 18.8173 10.0616 18.7497C9.8123 18.6145 9.44557 18.4008 8.97988 18.0884C8.04855 17.4637 6.72116 16.4443 5.1457 14.8688C3.57023 13.2933 2.55075 11.966 1.92606 11.0346C1.6137 10.5689 1.4 10.2022 1.26482 9.9529C1.19724 9.82825 1.14928 9.73295 1.11843 9.66932C1.10301 9.63751 1.09186 9.61361 1.08468 9.59791L1.07685 9.58056L1.07508 9.57656L1.07473 9.57575L1.07472 9.57573L1.07469 9.57566L1.07468 9.57564L1.07019 9.56523L1.06412 9.55553C-0.490479 7.0719 -0.00209158 3.32054 2.07429 1.24416L2.37405 0.944402C3.5066 -0.18815 5.22508 -0.0912372 6.21816 1.16431L6.3358 1.07125L6.21816 1.16431L7.85012 3.22752C8.8447 4.48494 8.73605 6.444 7.59996 7.59098L7.59976 7.59119L7.59881 7.59216L7.58831 7.60299L7.5883 7.60298L7.58715 7.60421ZM11.36 17.4567L11.36 17.4567C12.2765 18.0112 13.4451 18.1971 14.5662 18.0612C15.6874 17.9254 16.7777 17.4658 17.535 16.7085L17.8205 16.423C18.015 16.2285 18.117 15.9949 18.1046 15.7547C18.0922 15.5146 17.9666 15.292 17.7528 15.1168L15.7406 13.4683C15.4581 13.2369 15.0829 13.1379 14.7215 13.1556C14.3601 13.1732 13.9967 13.3084 13.7391 13.566L13.6592 13.6458C12.7194 14.5857 11.1932 14.585 10.2552 13.647L6.36755 9.75939L6.26149 9.86545L6.36755 9.75938C5.43176 8.82363 5.4271 7.30825 6.35669 6.36746C6.61963 6.10432 6.75963 5.72968 6.78214 5.35794C6.80465 4.98618 6.71074 4.5989 6.48206 4.30979L4.85009 2.24658C4.68584 2.03892 4.47749 1.91308 4.24756 1.90038C4.01779 1.88768 3.79589 1.9896 3.60754 2.17794L3.30778 2.4777C2.54427 3.24121 2.07875 4.33774 1.93928 5.4575C1.79984 6.57698 1.98413 7.73757 2.54276 8.63003L2.54276 8.63004L2.6194 8.75245L2.67657 8.88504C2.67657 8.88505 2.67658 8.88506 2.67658 8.88507C2.75022 9.05594 2.97123 9.46131 3.37475 10.0629C4.09487 11.1366 5.08296 12.3392 6.37914 13.6354C7.67532 14.9315 8.87788 15.9196 9.95155 16.6397C10.5532 17.0433 10.9586 17.2643 11.1294 17.3379L11.1888 17.2002L11.1294 17.3379L11.2488 17.3894L11.36 17.4567Z" fill="#13B772" stroke="white" stroke-width="0.3"/>
</svg>
