<svg width="20" height="20" viewBox="0 0 20 20" fill="none" xmlns="http://www.w3.org/2000/svg">
<path d="M7.81085 3.25707C8.78968 4.49459 8.68269 6.42524 7.56433 7.55432L7.55921 7.55947L7.55437 7.56433L7.55453 7.56449L7.55079 7.56835L7.55052 7.56864C7.28714 7.84776 7.2928 8.28691 7.56558 8.55968L11.4532 12.4473C11.4532 12.4473 11.4532 12.4473 11.4532 12.4473C11.729 12.7231 12.1822 12.7249 12.4609 12.4461L12.5408 12.3663C13.664 11.2431 15.5829 11.1472 16.8143 12.156L18.8264 13.8045L18.9532 13.6498L18.8265 13.8045C20.0453 14.803 20.1314 16.5069 19.0186 17.6197L18.7331 17.9052C16.6749 19.9634 12.973 20.4116 10.4829 18.9049L10.4711 18.8978L10.4587 18.8925L10.4586 18.8924L10.4585 18.8924L10.4579 18.8921L10.4542 18.8905L10.4373 18.8829C10.422 18.8758 10.3984 18.8649 10.3669 18.8496C10.304 18.8191 10.2093 18.7715 10.0854 18.7042C9.83743 18.5698 9.47203 18.3569 9.00767 18.0454C8.079 17.4225 6.75414 16.4051 5.18099 14.832C3.60785 13.2588 2.59043 11.934 1.96752 11.0053C1.65605 10.5409 1.44316 10.1755 1.30872 9.9276C1.2415 9.80362 1.19388 9.709 1.16336 9.64604C1.1481 9.61456 1.13712 9.591 1.13009 9.57564L1.12248 9.55879L1.12083 9.55504L1.12057 9.55446L1.12053 9.55436L1.1205 9.55431L1.11453 9.54046L1.10644 9.52753C-0.435323 7.06441 0.0490332 3.3386 2.10958 1.27805L2.40934 0.978291C3.52083 -0.133196 5.20443 -0.038127 6.17888 1.19386L6.17888 1.19386L7.81085 3.25707ZM11.334 17.498L11.3341 17.498C12.262 18.0594 13.4424 18.2463 14.5722 18.1094C15.702 17.9725 16.8035 17.5092 17.5703 16.7424L17.8558 16.4569C18.0583 16.2544 18.1678 16.0075 18.1545 15.7506C18.1412 15.4939 18.0069 15.2589 17.7844 15.0767L15.7723 13.4282C15.4785 13.1875 15.0904 13.086 14.719 13.1041C14.3476 13.1223 13.9716 13.2612 13.7037 13.5291L13.6238 13.609C12.7035 14.5293 11.209 14.5287 10.2905 13.6102L6.40285 9.72256L6.2663 9.8591L6.40284 9.72256C5.48651 8.80626 5.48195 7.32243 6.39212 6.40121C6.66528 6.12776 6.8089 5.74077 6.83199 5.35949C6.85508 4.97816 6.75905 4.57799 6.52121 4.2773L4.88924 2.2141C4.71841 1.99812 4.49781 1.86266 4.25026 1.84898C4.00291 1.83532 3.76785 1.94539 3.57212 2.14112L3.27236 2.44088C2.49948 3.21377 2.03016 4.32138 1.8896 5.44985C1.74909 6.57795 1.93424 7.75074 2.50031 8.65509L2.50032 8.6551L2.57493 8.77428L2.63059 8.90335C2.63059 8.90337 2.6306 8.90338 2.63061 8.9034C2.70608 9.07852 2.9291 9.48689 3.33317 10.0893C4.05539 11.1661 5.04566 12.3712 6.34372 13.6692C7.64179 14.9673 8.84683 15.9575 9.92363 16.6798C10.5262 17.0839 10.9345 17.3069 11.1096 17.3824L11.2258 17.4325L11.334 17.498Z" fill="#13B772" stroke="white" stroke-width="0.4"/>
</svg>
