<svg width="24" height="24" viewBox="0 0 24 24" fill="none" xmlns="http://www.w3.org/2000/svg">
<path d="M21.8485 16.0159L19.6352 14.2026C18.1932 13.0212 15.9548 13.133 14.6393 14.4485L14.5515 14.5363C14.3309 14.7569 13.9716 14.7552 13.7541 14.5376L9.47768 10.2612C9.26179 10.0453 9.25752 9.69809 9.46556 9.47762C9.46935 9.47361 9.4732 9.46966 9.4771 9.4657L9.46556 9.47762C9.46935 9.47361 9.4732 9.46966 9.4771 9.4657C10.7853 8.14496 10.9104 5.89625 9.76446 4.44742L7.9693 2.17789C6.81542 0.719054 4.81001 0.606365 3.49469 1.92168L3.16495 2.25142C0.828688 4.58768 0.278158 8.79848 2.03058 11.5981C2.03058 11.5981 3.06217 13.9905 6.5435 17.4719C10.0248 20.9532 12.4172 21.9848 12.4172 21.9848C15.243 23.6945 19.4263 23.1881 21.762 20.8524L22.076 20.5383C23.3924 19.222 23.2895 17.1965 21.8485 16.0159ZM20.4858 18.9482L20.1718 19.2622C18.5682 20.8658 15.5219 21.2348 13.5813 20.0607L13.4493 19.9808L13.3076 19.9197C13.1337 19.8447 12.6977 19.6083 12.0385 19.1662C10.8678 18.381 9.55321 17.3013 8.13364 15.8817C6.71407 14.4622 5.63435 13.1475 4.84917 11.9768C4.40706 11.3177 4.17061 10.8817 4.09566 10.7078L4.02777 10.5503L3.9368 10.405C2.75694 8.52008 3.13733 5.45946 4.75514 3.84166L5.08488 3.51192C5.45051 3.14629 5.88766 3.17116 6.2056 3.57311L8.00076 5.84264C8.4434 6.40224 8.38611 7.37648 7.87527 7.88738C6.78854 8.9868 6.79392 10.7579 7.88755 11.8515L12.164 16.1279C13.2602 17.2242 15.0435 17.2248 16.1418 16.1266L16.2296 16.0387C16.7282 15.5401 17.6628 15.494 18.2101 15.9423L20.4234 17.7556C20.8366 18.0941 20.8608 18.5732 20.4858 18.9482Z" fill="#13B772"/>
<path d="M9.46556 9.47762C9.25752 9.69809 9.26179 10.0453 9.47768 10.2612L13.7541 14.5376C13.9716 14.7552 14.3309 14.7569 14.5515 14.5363L14.6393 14.4485C15.9548 13.133 18.1932 13.0212 19.6352 14.2026L21.8485 16.0159C23.2895 17.1965 23.3924 19.222 22.076 20.5383L21.762 20.8524C19.4263 23.1881 15.243 23.6945 12.4172 21.9848C12.4172 21.9848 10.0248 20.9532 6.5435 17.4719C3.06217 13.9905 2.03058 11.5981 2.03058 11.5981C0.278158 8.79848 0.828688 4.58768 3.16495 2.25142L3.49469 1.92168C4.81001 0.606365 6.81542 0.719054 7.9693 2.17789L9.76446 4.44742C10.9104 5.89625 10.7853 8.14496 9.4771 9.4657M9.46556 9.47762C9.46935 9.47361 9.4732 9.46966 9.4771 9.4657M9.46556 9.47762L9.4771 9.4657M20.4858 18.9482L20.1718 19.2622C18.5682 20.8658 15.5219 21.2348 13.5813 20.0607L13.4493 19.9808L13.3076 19.9197C13.1337 19.8447 12.6977 19.6083 12.0385 19.1662C10.8678 18.381 9.55321 17.3013 8.13364 15.8817C6.71407 14.4622 5.63435 13.1475 4.84917 11.9768C4.40706 11.3177 4.17061 10.8817 4.09566 10.7078L4.02777 10.5503L3.9368 10.405C2.75694 8.52008 3.13733 5.45946 4.75514 3.84166L5.08488 3.51192C5.45051 3.14629 5.88766 3.17116 6.2056 3.57311L8.00076 5.84264C8.4434 6.40224 8.38611 7.37648 7.87527 7.88738C6.78854 8.9868 6.79392 10.7579 7.88755 11.8515L12.164 16.1279C13.2602 17.2242 15.0435 17.2248 16.1418 16.1266L16.2296 16.0387C16.7282 15.5401 17.6628 15.494 18.2101 15.9423L20.4234 17.7556C20.8366 18.0941 20.8608 18.5732 20.4858 18.9482Z" stroke="white" stroke-width="0.9"/>
</svg>
