<svg width="30" height="30" viewBox="0 0 30 30" fill="none" xmlns="http://www.w3.org/2000/svg">
<g clip-path="url(#clip0)">
<path d="M2.97388 8.9848L14.9997 1.7L26.8962 9.70531V28.1657H3.06039L2.97388 8.9848Z" fill="#F3F3F3"/>
<path d="M28.9652 10.7387C28.7702 10.7389 28.5793 10.6835 28.4145 10.5794L14.9998 2.46284L1.58518 10.5794C1.10248 10.8717 0.474657 10.7229 0.174138 10.2452C-0.126382 9.76779 0.0114038 9.13745 0.483583 8.82869L14.4489 0.393992C14.7854 0.181363 15.2143 0.181363 15.5508 0.393992L29.5161 8.82869C29.9063 9.07405 30.0872 9.54806 29.9594 9.99094C29.8315 10.4338 29.4262 10.7387 28.9652 10.7387Z" fill="#13B772"/>
<path d="M12.931 15.2346H17.0687C17.9258 15.2346 18.6205 15.9293 18.6205 16.7864V28.1657H11.3792V16.7864C11.3792 15.9293 12.0738 15.2346 12.931 15.2346Z" fill="#13B772"/>
<path d="M8.76718 16.3932C8.79305 19.8898 5.17236 17.8416 5.17236 21.4414V17.3035C5.17397 16.7329 5.63608 16.2707 6.20668 16.2691H8.27577C8.44721 16.2696 8.61589 16.3124 8.76718 16.3932Z" fill="#CBE7FF"/>
<path d="M24.8274 17.3035V21.7156L21.7913 22.9932H21.724C21.1534 22.9914 20.6913 22.5293 20.6895 21.9587V17.3035C20.6913 16.7329 21.1534 16.2707 21.724 16.2691H23.7931C24.3637 16.2707 24.8258 16.7329 24.8274 17.3035Z" fill="#B3D6F7"/>
<path d="M17.069 22.4759C17.069 22.7616 16.8376 22.9932 16.5519 22.9932C16.2661 22.9932 16.0347 22.7616 16.0347 22.4759C16.0347 22.1903 16.2661 21.9586 16.5519 21.9586C16.8376 21.9586 17.069 22.1903 17.069 22.4759Z" fill="#0E412B"/>
<path d="M16.8724 6.72599C16.5518 13.1658 12.5949 8.72252 12.4241 12.752C12.4179 12.7177 12.4143 12.6831 12.4138 12.6485V8.51058C12.4136 7.28148 13.2783 6.22176 14.4827 5.97594C14.8242 5.90705 15.1757 5.90705 15.5172 5.97594C16.0146 6.07665 16.4717 6.32109 16.831 6.67952C16.8461 6.69371 16.8601 6.70928 16.8724 6.72599Z" fill="#CBE7FF"/>
<path d="M29.9998 28.1657V29.2C29.9998 29.4856 29.7682 29.7172 29.4826 29.7172H20.6895V27.6484H29.4826C29.7682 27.6484 29.9998 27.8798 29.9998 28.1657Z" fill="#13B772"/>
<path d="M22.7585 27.6484V29.7172H0.568996C0.269621 29.7298 0.0157927 29.4991 0 29.2V28.1657C0.0157927 27.8663 0.269621 27.6358 0.568996 27.6484H22.7585Z" fill="#13B772"/>
<path d="M9.3103 27.6484H20.6893V29.7172H9.3103V27.6484Z" fill="#D2D2D2"/>
<path d="M17.586 8.51057V12.6485C17.586 12.9342 17.3546 13.1658 17.0688 13.1658H12.931C12.7873 13.1669 12.6497 13.1068 12.5534 13.0001C12.4895 12.9321 12.4449 12.8481 12.4241 12.757V12.752C12.5948 8.72252 15.2533 7.24852 16.8724 6.72598C17.0544 6.91435 17.2047 7.13087 17.3171 7.36731C17.494 7.72253 17.586 8.11392 17.586 8.51057Z" fill="#B3D6F7"/>
<path d="M12.5534 13C12.4895 12.9321 12.4449 12.8481 12.4241 12.757L12.5534 13Z" fill="#90BAE1"/>
<path d="M15.5172 5.97594V13.1658H14.4827V5.97594C14.8242 5.90705 15.1757 5.90705 15.5172 5.97594Z" fill="#0E412B"/>
<path d="M12.4138 9.54488H17.5861V10.5794H12.4138V9.54488Z" fill="#0E412B"/>
<path d="M9.31031 17.3035V21.9587C9.30848 22.5293 8.84637 22.9914 8.27577 22.9932H8.20848L5.17236 21.7156V21.4414C5.17236 17.8416 7.64474 16.7191 8.76717 16.3932C8.86971 16.4479 8.96081 16.5216 9.03611 16.6104C9.21487 16.7965 9.31329 17.0455 9.31031 17.3035Z" fill="#B3D6F7"/>
<path d="M5.17236 18.8553H9.31032V19.8898H5.17236V18.8553Z" fill="#0E412B"/>
<path d="M7.75867 16.2691V21.7209C7.75867 22.0065 7.52704 22.2379 7.24139 22.2379C6.95575 22.2379 6.72412 22.0065 6.72412 21.7209V16.2691H7.75867Z" fill="#0E412B"/>
<path d="M24.2845 16.3932C24.3104 19.8898 20.6895 17.8416 20.6895 21.4414V17.3035C20.6913 16.7329 21.1534 16.2707 21.724 16.2691H23.7931C23.9645 16.2696 24.1332 16.3124 24.2845 16.3932Z" fill="#CBE7FF"/>
<path d="M20.6895 18.8553H24.8274V19.8898H20.6895V18.8553Z" fill="#0E412B"/>
<path d="M23.2758 16.2691V21.7209C23.2758 22.0065 23.0441 22.2379 22.7585 22.2379C22.4728 22.2379 22.2412 22.0065 22.2412 21.7209V16.2691H23.2758Z" fill="#0E412B"/>
<path d="M9.31039 26.3552C9.31039 27.355 8.4997 28.1657 7.49995 28.1657H1.81044C0.812525 28.1606 0.00480648 27.3531 0 26.3552C0.00022888 25.4456 0.675426 24.6773 1.57767 24.5603C1.55845 24.4704 1.54975 24.3784 1.55181 24.2864C1.55181 23.2864 2.36227 22.4759 3.36202 22.4759C3.69115 22.4743 4.01387 22.5656 4.29311 22.7398C4.60072 21.9525 5.36175 21.4361 6.20678 21.4414C7.1493 21.4437 7.97167 22.0811 8.20856 22.9932C8.2548 23.1616 8.27746 23.3358 8.27585 23.5105C8.277 23.8984 8.16759 24.2788 7.96023 24.607C8.27059 24.6864 8.55303 24.8492 8.77756 25.0776C9.11928 25.4147 9.31131 25.875 9.31039 26.3552Z" fill="#0E412B"/>
<path d="M29.9998 26.3552C29.995 27.3531 29.1873 28.1606 28.1894 28.1657H22.4999C22.0197 28.1657 21.5592 27.9748 21.2198 27.6353C20.8803 27.2959 20.6895 26.8354 20.6895 26.3552C20.6885 25.875 20.8806 25.4147 21.2223 25.0776C21.4468 24.8492 21.7293 24.6864 22.0396 24.607C21.8323 24.2788 21.7229 23.8984 21.724 23.5105C21.7226 22.5199 22.4246 21.6677 23.3969 21.4796C24.3694 21.2915 25.3387 21.8202 25.7067 22.7398C25.986 22.5656 26.3087 22.4743 26.6378 22.4759C27.118 22.4759 27.5783 22.6666 27.918 23.0062C28.2574 23.3457 28.448 23.8062 28.448 24.2864C28.4501 24.3784 28.4414 24.4704 28.4222 24.5603C29.3244 24.6773 29.9996 25.4456 29.9998 26.3552Z" fill="#0E412B"/>
</g>
<defs>
<clipPath id="clip0">
<rect width="30" height="30" fill="white"/>
</clipPath>
</defs>
</svg>
