<svg width="30" height="30" viewBox="0 0 30 30" fill="none" xmlns="http://www.w3.org/2000/svg">
<path d="M19.1964 3.1097H15V0.452293H19.1964L18.2919 1.78102L19.1964 3.1097Z" fill="#13B772"/>
<path d="M14.9999 6.76998C14.7501 6.76998 14.5476 6.56748 14.5476 6.3177V0.452285C14.5477 0.2025 14.7502 0 14.9999 0C15.2497 0 15.4522 0.2025 15.4522 0.452285V6.31775C15.4521 6.56748 15.2497 6.76998 14.9999 6.76998Z" fill="#B8C1C8"/>
<path d="M10.6526 22.4655V10.5265H19.3475V22.4655" fill="#F3F3F3"/>
<path d="M19.3475 10.5265H12.7746H10.6526V12.1846V22.4655H12.7746V12.1846H19.3475V10.5265Z" fill="#E2E2E2"/>
<path d="M22.9045 18.305V29.9999H6.62427V18.305H10.6524V20.1551H12.2926V18.305H14.18V20.1551H15.8197V18.305H17.7077V20.1551H19.3473V18.305H22.9045Z" fill="#C4CAC7"/>
<path d="M8.52332 16.4056H1.73999V30H8.52332V16.4056Z" fill="#F3F3F3"/>
<path d="M8.52363 16.4055H3.72989H1.73999V17.9432V30H3.72989V17.9432H8.52363V16.4055Z" fill="#E2E2E2"/>
<path d="M28.2597 16.4056H21.4763V30H28.2597V16.4056Z" fill="#F3F3F3"/>
<path d="M28.2602 16.4055H23.4665H21.4766V17.9432V30H23.4665V17.9432H28.2602V16.4055Z" fill="#E2E2E2"/>
<path d="M6.90729 12.9791V14.6923H5.26736V12.9791H3.48219V14.6923H1.84227V12.9791H0.226074V15.4348C0.226074 15.9709 0.660664 16.4055 1.1968 16.4055H8.52348V12.9791H6.90729Z" fill="#C4CAC7"/>
<path d="M28.1576 12.9791V14.6923H26.5177V12.9791H24.7325V14.6923H23.0925V12.9791H21.4763V16.4055H28.803C29.3391 16.4055 29.7737 15.9709 29.7737 15.4348V12.9791H28.1576Z" fill="#C4CAC7"/>
<path d="M24.7138 18.6667C24.0145 18.6667 23.4475 19.2336 23.4475 19.9329V22.6464H25.98V19.9329C25.98 19.2336 25.4131 18.6667 24.7138 18.6667Z" fill="#0E412B"/>
<path d="M4.99601 18.6667C4.29669 18.6667 3.72974 19.2336 3.72974 19.9329V22.6464H6.26228V19.9329C6.26228 19.2336 5.69532 18.6667 4.99601 18.6667Z" fill="#0E412B"/>
<path d="M15 4.6776L9.08154 10.5266H20.9186L15 4.6776Z" fill="#13B772"/>
<path d="M12.9555 10.5266L15 4.6776L9.08154 10.5266H12.9555Z" fill="#0E412B"/>
<path d="M14.9999 12.1846C14.3006 12.1846 13.7336 12.7516 13.7336 13.4509V16.1644H16.2662V13.4509C16.2662 12.7516 15.6992 12.1846 14.9999 12.1846Z" fill="#0E412B"/>
<path d="M15 22.4655C13.3016 22.4655 11.9248 23.8423 11.9248 25.5407V29.9726H18.0753V25.5407C18.0752 23.8423 16.6984 22.4655 15 22.4655Z" fill="#0E412B"/>
<path d="M4.54399 25.6312H3.27772C3.02794 25.6312 2.82544 25.4287 2.82544 25.1789C2.82544 24.9291 3.02794 24.7266 3.27772 24.7266H4.54399C4.79378 24.7266 4.99628 24.9291 4.99628 25.1789C4.99628 25.4287 4.79372 25.6312 4.54399 25.6312Z" fill="#E2E2E2"/>
<path d="M5.99126 27.0784H4.72499C4.47521 27.0784 4.27271 26.8759 4.27271 26.6261C4.27271 26.3763 4.47521 26.1738 4.72499 26.1738H5.99126C6.24105 26.1738 6.44355 26.3763 6.44355 26.6261C6.44355 26.8759 6.24105 27.0784 5.99126 27.0784Z" fill="#E2E2E2"/>
<path d="M24.4424 25.6312H23.1762C22.9263 25.6312 22.7239 25.4287 22.7239 25.1789C22.7239 24.9291 22.9263 24.7266 23.1762 24.7266H24.4424C24.6923 24.7266 24.8947 24.9291 24.8947 25.1789C24.8947 25.4287 24.6923 25.6312 24.4424 25.6312Z" fill="#E2E2E2"/>
<path d="M25.8897 27.0784H24.6234C24.3736 27.0784 24.1711 26.8759 24.1711 26.6261C24.1711 26.3763 24.3736 26.1738 24.6234 26.1738H25.8897C26.1395 26.1738 26.342 26.3763 26.342 26.6261C26.342 26.8759 26.1395 27.0784 25.8897 27.0784Z" fill="#E2E2E2"/>
<path d="M20.0105 22.9178H18.7443C18.4944 22.9178 18.292 22.7153 18.292 22.4655C18.292 22.2157 18.4944 22.0132 18.7443 22.0132H20.0105C20.2604 22.0132 20.4628 22.2157 20.4628 22.4655C20.4628 22.7153 20.2604 22.9178 20.0105 22.9178Z" fill="#E2E2E2"/>
<path d="M13.1075 12.2449H11.8412C11.5914 12.2449 11.3889 12.0424 11.3889 11.7926C11.3889 11.5429 11.5914 11.3404 11.8412 11.3404H13.1075C13.3573 11.3404 13.5598 11.5429 13.5598 11.7926C13.5597 12.0425 13.3572 12.2449 13.1075 12.2449Z" fill="#E2E2E2"/>
<path d="M11.1465 24.0032H9.88026C9.63048 24.0032 9.42798 23.8007 9.42798 23.5509C9.42798 23.3011 9.63048 23.0986 9.88026 23.0986H11.1465C11.3963 23.0986 11.5988 23.3011 11.5988 23.5509C11.5988 23.8007 11.3963 24.0032 11.1465 24.0032Z" fill="#E2E2E2"/>
</svg>
