<svg width="30" height="30" viewBox="0 0 30 30" fill="none" xmlns="http://www.w3.org/2000/svg">
<path d="M25.3126 1.24992H20.9375C20.42 1.24992 20 1.66992 20 2.18742V6.41258C20 6.66252 20.1 6.90376 20.2788 7.07886L24.6539 11.4038C24.8326 11.5812 25.0713 11.675 25.3126 11.675C25.435 11.675 25.5575 11.6512 25.6738 11.6025C26.0226 11.4576 26.2501 11.1163 26.2501 10.7375V2.18742C26.2501 1.66992 25.8301 1.24992 25.3126 1.24992Z" fill="#0E412B"/>
<path d="M30 14.6885C30 15.5509 29.3001 16.2508 28.4374 16.2508H26.25L15 5.3135L3.75 16.2508H1.56258C0.699921 16.2508 0 15.5509 0 14.6885C0 14.2758 0.162506 13.8634 0.46257 13.5759L14.35 0.263447C14.7125 -0.0865135 15.2875 -0.0865135 15.65 0.263447L29.5251 13.5633C29.8375 13.8634 30 14.2758 30 14.6885Z" fill="#13B772"/>
<path d="M15 5.31258L3.75 16.2499V27.4999C3.75 28.875 4.87495 30 6.25008 30H23.7499C25.125 30 26.25 28.875 26.25 27.4999V16.2499L15 5.31258Z" fill="#F3F3F3"/>
<path d="M11.25 19.9999H18.75V30H11.25V19.9999Z" fill="#13B772"/>
</svg>
