<svg width="20" height="20" viewBox="0 0 20 20" fill="none" xmlns="http://www.w3.org/2000/svg">
<path d="M9.99957 0.277771C4.63064 0.277771 0.277344 4.63107 0.277344 9.99999C0.277344 15.3689 4.63064 19.7222 9.99957 19.7222C15.3685 19.7222 19.7218 15.3689 19.7218 9.99999C19.7218 4.63107 15.3685 0.277771 9.99957 0.277771ZM9.99957 18.0729C5.5421 18.0729 1.92665 14.4575 1.92665 9.99999C1.92665 5.54253 5.5421 1.92708 9.99957 1.92708C14.457 1.92708 18.0725 5.54253 18.0725 9.99999C18.0725 14.4575 14.457 18.0729 9.99957 18.0729Z" fill="#13B772"/>
<path d="M12.4214 5.76173C11.7704 5.19098 10.911 4.87848 9.99957 4.87848C9.08811 4.87848 8.22873 5.19315 7.57769 5.76173C6.90061 6.35417 6.52734 7.15061 6.52734 8.00348V8.16841C6.52734 8.2639 6.60547 8.34202 6.70095 8.34202H7.74262C7.83811 8.34202 7.91623 8.2639 7.91623 8.16841V8.00348C7.91623 7.04645 8.85156 6.26737 9.99957 6.26737C11.1476 6.26737 12.0829 7.04645 12.0829 8.00348C12.0829 8.67839 11.6055 9.29688 10.8655 9.58117C10.4054 9.75695 10.0148 10.0651 9.73481 10.4688C9.45052 10.8811 9.30295 11.3759 9.30295 11.8772V12.3438C9.30295 12.4392 9.38108 12.5174 9.47656 12.5174H10.5182C10.6137 12.5174 10.6918 12.4392 10.6918 12.3438V11.8511C10.693 11.6405 10.7575 11.435 10.8772 11.2616C10.9968 11.0882 11.1659 10.9548 11.3624 10.8789C12.6428 10.3863 13.4696 9.25782 13.4696 8.00348C13.4718 7.15061 13.0985 6.35417 12.4214 5.76173ZM9.13151 14.7743C9.13151 15.0045 9.22297 15.2253 9.38576 15.3881C9.54855 15.5509 9.76934 15.6424 9.99957 15.6424C10.2298 15.6424 10.4506 15.5509 10.6134 15.3881C10.7762 15.2253 10.8676 15.0045 10.8676 14.7743C10.8676 14.5441 10.7762 14.3233 10.6134 14.1605C10.4506 13.9977 10.2298 13.9063 9.99957 13.9063C9.76934 13.9063 9.54855 13.9977 9.38576 14.1605C9.22297 14.3233 9.13151 14.5441 9.13151 14.7743Z" fill="#13B772"/>
</svg>
