<svg width="20" height="20" viewBox="0 0 20 20" fill="none" xmlns="http://www.w3.org/2000/svg">
<path d="M19.4141 9.41496C19.0905 9.41496 18.8281 9.6773 18.8281 10.0009C18.8281 14.8688 14.8679 18.8291 10.0001 18.8291C5.13231 18.829 1.17199 14.8687 1.17188 10.001C1.17199 5.13313 5.13223 1.17285 9.99992 1.17285C12.1616 1.17281 14.2044 1.94496 15.8142 3.35801L13.9747 5.19754C12.8591 4.27105 11.4684 3.7666 10.0001 3.7666C6.56242 3.7666 3.7657 6.56332 3.7657 10.001C3.7657 13.4386 6.56242 16.2354 10.0001 16.2354C13.4377 16.2354 16.2344 13.4386 16.2344 10.001C16.2344 9.67738 15.9721 9.41504 15.6485 9.41504C15.3249 9.41504 15.0625 9.67738 15.0625 10.001C15.0625 12.7924 12.7915 15.0635 10.0001 15.0635C7.20859 15.0635 4.93758 12.7925 4.93758 10.001C4.93758 7.20949 7.20859 4.93848 10.0001 4.93848C11.1549 4.93848 12.2507 5.32289 13.1416 6.0307L11.2819 7.89043C10.8994 7.65719 10.4593 7.53223 9.99984 7.53227C8.63863 7.53227 7.53121 8.63973 7.53121 10.0009C7.53121 11.3622 8.63871 12.4696 9.99996 12.4696C11.3612 12.4696 12.4687 11.3622 12.4687 10.001C12.4687 9.5416 12.3438 9.10156 12.1105 8.71906L17.071 3.75852C17.1854 3.64406 17.2426 3.4941 17.2426 3.34414C17.2426 3.19414 17.1854 3.04414 17.071 2.92973C15.1822 1.04102 12.671 0.000937501 9.99992 0.000976564C7.32891 0.000976564 4.8177 1.04117 2.92898 2.92988C1.04023 4.81859 3.90625e-05 7.32988 0 10.001C3.90625e-05 12.672 1.04027 15.1832 2.92898 17.072C4.81773 18.9607 7.32895 20.0009 10.0001 20.0009C12.6711 20.0009 15.1823 18.9607 17.0711 17.072C18.9598 15.1832 20 12.672 20 10.0009C20 9.6773 19.7377 9.41496 19.4141 9.41496ZM10 11.2978C9.28488 11.2978 8.70312 10.716 8.70312 10.0009C8.70312 9.28586 9.28484 8.70414 10 8.70414C10.3464 8.7041 10.672 8.83895 10.9169 9.08383C10.917 9.08387 10.917 9.08391 10.9171 9.08394C10.9171 9.08398 10.9171 9.08402 10.9172 9.08406C11.162 9.32898 11.2969 9.65461 11.2969 10.001C11.2969 10.7161 10.7151 11.2978 10 11.2978Z" fill="#13B772"/>
</svg>
