<svg width="12" height="7" viewBox="0 0 12 7" fill="none" xmlns="http://www.w3.org/2000/svg">
<path d="M2.44376 0.515824L6.00043 4.07249L9.5571 0.515824C9.64196 0.430957 9.74271 0.363638 9.8536 0.317708C9.96448 0.271779 10.0833 0.248138 10.2033 0.248138C10.3234 0.248138 10.4422 0.271779 10.5531 0.317708C10.664 0.363638 10.7647 0.430957 10.8496 0.515824C10.9345 0.600691 11.0018 0.701442 11.0477 0.812326C11.0936 0.92321 11.1173 1.04205 11.1173 1.16207C11.1173 1.28209 11.0936 1.40094 11.0477 1.51182C11.0018 1.62271 10.9345 1.72346 10.8496 1.80832L6.6421 6.01582C6.55729 6.1008 6.45656 6.16822 6.34567 6.21422C6.23478 6.26022 6.1159 6.2839 5.99585 6.2839C5.87579 6.2839 5.75692 6.26022 5.64602 6.21422C5.53513 6.16822 5.4344 6.1008 5.3496 6.01582L1.1421 1.80832C1.05712 1.72352 0.9897 1.62279 0.9437 1.5119C0.897701 1.401 0.874023 1.28213 0.874023 1.16207C0.874023 1.04202 0.897701 0.923144 0.9437 0.812252C0.9897 0.70136 1.05712 0.600628 1.1421 0.515824C1.4996 0.167491 2.08626 0.158324 2.44376 0.515824Z" fill="#686868"/>
</svg>
