<svg width="16" height="16" viewBox="0 0 16 16" fill="none" xmlns="http://www.w3.org/2000/svg">
<path d="M15.9186 0.655058C15.8473 0.592589 15.746 0.578095 15.6601 0.61794L0.138394 7.82975C0.0548304 7.86859 0.00101877 7.95197 1.42847e-05 8.04409C-0.0009902 8.13622 0.0510517 8.22074 0.133802 8.26135L4.52641 10.4171C4.60696 10.4566 4.70301 10.4477 4.77495 10.3939L9.04578 7.20186L5.693 10.6506C5.64517 10.6998 5.62077 10.7672 5.62604 10.8356L5.95986 15.1831C5.96727 15.2794 6.03185 15.3618 6.12364 15.3919C6.14818 15.4 6.17338 15.4039 6.1983 15.4039C6.26666 15.4039 6.33314 15.3746 6.3794 15.321L8.71085 12.6193L11.593 13.9964C11.6556 14.0263 11.728 14.0276 11.7916 13.9999C11.8551 13.9722 11.9035 13.9184 11.9243 13.8523L15.989 0.906514C16.0174 0.81611 15.9897 0.717527 15.9186 0.655058Z" fill="white"/>
</svg>
