<svg width="20" height="20" viewBox="0 0 20 20" fill="none" xmlns="http://www.w3.org/2000/svg">
<path d="M2.68706 13.5156C2.68706 15.7772 4.52702 17.6172 6.78862 17.6172H10.9482C11.2126 18.9409 12.3804 20 13.8199 20H16.1636C17.7831 20 19.0933 18.651 19.0933 17.0312C19.0933 15.4158 17.779 14.1016 16.1636 14.1016H13.8199C12.4051 14.1016 11.2214 15.1097 10.9491 16.4453H6.78862C5.17319 16.4453 3.85893 15.1311 3.85893 13.5156V10.5859H5.03081V11.1719C5.03081 12.1411 5.81936 12.9297 6.78862 12.9297H14.9917C15.961 12.9297 16.7496 12.1411 16.7496 11.1719V8.5525C18.3957 7.14207 19.6567 6.26395 19.6567 4.8227C19.6567 3.60934 18.7608 2.65887 17.6172 2.65887C17.0558 2.65887 16.5506 2.8966 16.1637 3.32883C15.7767 2.8966 15.2715 2.65887 14.7101 2.65887C13.5665 2.65887 12.6706 3.60934 12.6706 4.8227C12.6706 6.09637 13.6609 6.93215 15.0314 8.08895C15.2081 8.23812 15.3894 8.39113 15.5778 8.5525V11.1719C15.5778 11.495 15.3149 11.7578 14.9918 11.7578H6.7887C6.46561 11.7578 6.20276 11.495 6.20276 11.1719V10.5859H10.8903V0H0.343384V10.5859H2.68713V13.5156H2.68706ZM13.8199 15.2734H16.1636C17.1329 15.2734 17.9214 16.062 17.9214 17.0312C17.9214 18.0053 17.1165 18.8281 16.1636 18.8281H13.8199C12.867 18.8281 12.0621 18.0053 12.0621 17.0312C12.0621 16.062 12.8506 15.2734 13.8199 15.2734ZM13.8424 4.8227C13.8424 4.32977 14.1404 3.83074 14.71 3.83074C15.0471 3.83074 15.3196 4.04379 15.5198 4.46391L15.6789 4.79781H16.6483L16.8074 4.46391C17.0076 4.04375 17.2801 3.83074 17.6171 3.83074C18.1867 3.83074 18.4848 4.32977 18.4848 4.8227C18.4848 5.62809 17.573 6.31355 16.1635 7.51191C14.6881 6.25738 13.8424 5.61508 13.8424 4.8227ZM9.71831 1.17188V9.41406C8.86292 9.41406 6.49655 9.41406 5.61674 9.41406C4.64749 9.41406 3.85893 8.62551 3.85893 7.65625V2.96875C3.85893 1.99473 4.66389 1.17188 5.61674 1.17188H9.71831ZM1.51518 1.17148H3.29186C2.90002 1.68859 2.68706 2.31395 2.68706 2.96875V7.65625C2.68706 8.31527 2.906 8.92406 3.27471 9.41406H1.51518V1.17148Z" fill="#13B772"/>
<path d="M5.03082 2.38281H6.2027V3.55469H5.03082V2.38281Z" fill="#13B772"/>
<path d="M5.03082 4.72656H6.2027V5.89844H5.03082V4.72656Z" fill="#13B772"/>
<path d="M5.03082 7.07031H6.2027V8.24219H5.03082V7.07031Z" fill="#13B772"/>
</svg>
