<svg width="20" height="20" viewBox="0 0 20 20" fill="none" xmlns="http://www.w3.org/2000/svg">
<path d="M15.2734 15.2734V0H11.7578V15.2734H9.89496L10.6243 9.41406H9.33297C9.04777 7.42906 7.33609 5.89844 5.27344 5.89844C3.21078 5.89844 1.4991 7.42906 1.21391 9.41406C0.78375 9.41406 0.432539 9.41406 0 9.41406V15.2734H0.654102L1.24004 20C2.01297 20 18.1809 20 18.8281 20V16.4453H20V15.2734H15.2734ZM14.1016 1.17188V3.55469H12.9297V1.17188H14.1016ZM12.9297 4.72656H14.1016V15.2734H12.9297V4.72656ZM5.27344 7.07031C6.68824 7.07031 7.87203 8.07848 8.14426 9.41406C7.90492 9.41406 2.6648 9.41406 2.40262 9.41406C2.67484 8.07848 3.85863 7.07031 5.27344 7.07031ZM4.6875 10.5859V14.1016H1.17188V10.5859H4.6875ZM8.27152 18.8281H2.27559L1.83492 15.2734H5.85938V10.5859H9.29754L8.27152 18.8281ZM17.6562 18.8281H16.4453V17.6172H15.2734V18.8281H14.1016V17.6172H12.9297V18.8281H11.7188V17.6172H10.5469V18.8281H9.45246L9.74906 16.4453H17.6562V18.8281Z" fill="#13B772"/>
</svg>
