<svg width="20" height="20" viewBox="0 0 20 20" fill="none" xmlns="http://www.w3.org/2000/svg">
<path d="M16.8359 7.8125H15.4688V6.83594C15.4688 6.5123 15.2065 6.25 14.8828 6.25H1.99219C1.66855 6.25 1.40625 6.5123 1.40625 6.83594V8.2901C1.40625 9.48288 1.50574 10.6842 1.70181 11.8607L2.97668 19.5103C3.02383 19.7929 3.26828 20 3.55469 20H13.3203C13.6067 20 13.8512 19.7929 13.8983 19.5103L14.3506 16.7969H16.8359C17.8052 16.7969 18.5938 16.0083 18.5938 15.0391V9.57031C18.5938 8.60107 17.8052 7.8125 16.8359 7.8125ZM4.05106 18.8281L2.85767 11.6679C2.67212 10.555 2.57812 9.41849 2.57812 8.2901V7.42188H6.09375V9.45312H5.11719C4.79355 9.45312 4.53125 9.71542 4.53125 10.0391V14.7266C4.53125 15.0502 4.79355 15.3125 5.11719 15.3125H8.24219C8.56583 15.3125 8.82812 15.0502 8.82812 14.7266V10.0391C8.82812 9.71542 8.56583 9.45312 8.24219 9.45312H7.26562V7.42188H14.2969V8.2901C14.2969 9.41849 14.2029 10.5548 14.0173 11.6679L12.8239 18.8281H4.05106ZM7.65625 10.625V14.1406H5.70312V10.625H7.65625ZM17.4219 15.0391C17.4219 15.3621 17.159 15.625 16.8359 15.625H14.5459L15.1733 11.8607C15.3313 10.9122 15.4265 9.94751 15.4575 8.98438H16.8359C17.159 8.98438 17.4219 9.24728 17.4219 9.57031V15.0391Z" fill="#13B772"/>
<path d="M3.94531 3.51562H6.875C7.41348 3.51562 7.85156 3.9537 7.85156 4.49219C7.85156 4.81583 8.11386 5.07812 8.4375 5.07812C8.76114 5.07812 9.02344 4.81583 9.02344 4.49219C9.02344 3.3075 8.05969 2.34375 6.875 2.34375H3.94531C3.62228 2.34375 3.35938 2.08084 3.35938 1.75781C3.35938 1.43478 3.62228 1.17188 3.94531 1.17188H11.1719C11.4955 1.17188 11.7578 0.909576 11.7578 0.585938C11.7578 0.262299 11.4955 0 11.1719 0H3.94531C2.97607 0 2.1875 0.788574 2.1875 1.75781C2.1875 2.72705 2.97607 3.51562 3.94531 3.51562Z" fill="#13B772"/>
</svg>
