<svg width="22" height="22" viewBox="0 0 22 22" fill="none" xmlns="http://www.w3.org/2000/svg">
<path d="M11 1C5.48193 1 1 5.48193 1 11C1 16.5181 5.48193 21 11 21C16.5181 21 21 16.5181 21 11C21 5.48193 16.5181 1 11 1ZM11 20.1325C5.96386 20.1325 1.86747 16.0361 1.86747 11C1.86747 5.96386 5.96386 1.86747 11 1.86747C16.0361 1.86747 20.1325 5.96386 20.1325 11C20.1325 16.0361 16.0361 20.1325 11 20.1325Z" fill="#13B772" stroke="#13B772" stroke-width="0.3"/>
<path d="M16.2048 8.83121H13.1686V5.79506C13.1686 5.5541 12.9758 5.36133 12.7349 5.36133H9.265C9.02404 5.36133 8.83127 5.5541 8.83127 5.79506V8.83121H5.79512C5.55416 8.83121 5.36139 9.02398 5.36139 9.26494V12.7348C5.36139 12.9758 5.55416 13.1686 5.79512 13.1686H8.83127V16.2047C8.83127 16.4457 9.02404 16.6384 9.265 16.6384H12.7349C12.9758 16.6384 13.1686 16.4457 13.1686 16.2047V13.1686H16.2048C16.4457 13.1686 16.6385 12.9758 16.6385 12.7348V9.26494C16.6144 9.02398 16.4216 8.83121 16.2048 8.83121ZM15.7951 12.3011H15.771H12.7349C12.4939 12.3011 12.3011 12.4939 12.3011 12.7348V15.771H9.69874V12.7348C9.69874 12.4939 9.50597 12.3011 9.265 12.3011H6.22886V9.69868H9.265C9.50597 9.69868 9.69874 9.50591 9.69874 9.26494V6.2288H12.3252V9.26494C12.3252 9.50591 12.518 9.69868 12.759 9.69868H15.7951V12.3011Z" fill="#13B772" stroke="#13B772" stroke-width="0.3"/>
</svg>
