<svg width="20" height="20" viewBox="0 0 20 20" fill="none" xmlns="http://www.w3.org/2000/svg">
<path d="M8.69559 10.6523C9.05575 10.6523 9.34778 10.3604 9.34778 10.0002V7.39145C9.34778 7.03129 9.05579 6.73926 8.69559 6.73926H6.08688C5.72672 6.73926 5.43469 7.03125 5.43469 7.39145C5.43469 7.75164 5.72668 8.04363 6.08688 8.04363H8.0434V9.34797H6.08688C5.72672 9.34797 5.43469 9.63996 5.43469 10.0002V12.6089C5.43469 12.969 5.72668 13.2611 6.08688 13.2611H8.69559C9.05575 13.2611 9.34778 12.9691 9.34778 12.6089C9.34778 12.2487 9.05579 11.9567 8.69559 11.9567H6.73907V10.6523H8.69559Z" fill="#13B772"/>
<path d="M3.47824 10.652C3.83843 10.652 4.13042 10.36 4.13042 9.99984C4.13042 9.63965 3.83843 9.34766 3.47824 9.34766C3.11804 9.34766 2.82605 9.63965 2.82605 9.99984C2.82605 10.36 3.11804 10.652 3.47824 10.652Z" fill="#13B772"/>
<path d="M16.5218 10.652C16.882 10.652 17.174 10.36 17.174 9.99984C17.174 9.63965 16.882 9.34766 16.5218 9.34766C16.1616 9.34766 15.8696 9.63965 15.8696 9.99984C15.8696 10.36 16.1616 10.652 16.5218 10.652Z" fill="#13B772"/>
<path d="M10.0001 17.1745C10.3603 17.1745 10.6523 16.8825 10.6523 16.5223C10.6523 16.1621 10.3603 15.8701 10.0001 15.8701C9.63989 15.8701 9.3479 16.1621 9.3479 16.5223C9.3479 16.8825 9.63989 17.1745 10.0001 17.1745Z" fill="#13B772"/>
<path d="M10.0001 4.13055C10.3603 4.13055 10.6523 3.83855 10.6523 3.47836C10.6523 3.11817 10.3603 2.82617 10.0001 2.82617C9.63989 2.82617 9.3479 3.11817 9.3479 3.47836C9.3479 3.83855 9.63989 4.13055 10.0001 4.13055Z" fill="#13B772"/>
<path d="M13.913 6.73926C13.5528 6.73926 13.2608 7.03125 13.2608 7.39145V9.34797H11.9565V7.39145C11.9565 7.03129 11.6645 6.73926 11.3043 6.73926C10.9441 6.73926 10.6521 7.03125 10.6521 7.39145V10.0001C10.6521 10.3603 10.9441 10.6523 11.3043 10.6523H13.2608V12.6088C13.2608 12.969 13.5528 13.261 13.913 13.261C14.2732 13.261 14.5652 12.969 14.5652 12.6088V7.39145C14.5652 7.03125 14.2732 6.73926 13.913 6.73926Z" fill="#13B772"/>
<path d="M19.3478 9.34781C18.9877 9.34781 18.6956 9.6398 18.6956 10C18.6956 14.7948 14.7948 18.6957 9.99996 18.6957C5.20516 18.6957 1.30434 14.7948 1.30434 10C1.30434 5.2052 5.20523 1.30434 10 1.30434C11.3387 1.30434 12.6503 1.61078 13.8385 2.1957L13.2345 2.79969C12.8926 3.1416 13.0296 3.72625 13.4895 3.87957L17.4025 5.18391C17.9128 5.35398 18.3966 4.86633 18.2275 4.35895L16.9231 0.445938C16.7701 -0.0129297 16.186 -0.151758 15.8432 0.191016L14.8057 1.22848C13.3381 0.423359 11.6875 0 10 0C4.47293 0 0 4.47258 0 10C0 15.5271 4.47258 20 10 20C15.5271 20 20 15.5274 20 10C20 9.63984 19.708 9.34781 19.3478 9.34781ZM16.0193 1.85953L16.5775 3.53406L14.903 2.9759L16.0193 1.85953Z" fill="#13B772"/>
</svg>
