<svg width="20" height="20" viewBox="0 0 20 20" fill="none" xmlns="http://www.w3.org/2000/svg">
<g clip-path="url(#clip0)">
<path d="M16.7414 8.05748H16.5985L15.9121 5.31206C15.5488 3.85879 14.2489 2.84375 12.7508 2.84375H8.56647C7.06843 2.84375 5.76851 3.85875 5.40515 5.31206L4.71879 8.05748H3.27251C1.53544 8.05748 0.111815 9.42369 0.0189637 11.138C-0.00377054 11.232 -0.0068174 11.3261 0.0139247 11.4252V12.6195C0.0139247 13.6976 0.890992 14.5746 1.96907 14.5746H2.60755C2.62087 16.0007 3.78465 17.1569 5.21383 17.1569C6.643 17.1569 7.80675 16.0007 7.82011 14.5746H12.1661C12.1795 16.0007 13.3432 17.1569 14.7724 17.1569C16.2016 17.1569 17.3653 16.0007 17.3787 14.5746H18.0449C19.123 14.5746 20.0001 13.6976 20.0001 12.6195V11.3161C19.9999 9.51927 18.5381 8.05748 16.7414 8.05748ZM11.5624 4.14718H12.7508C13.6496 4.14718 14.4296 4.7562 14.6476 5.62815L15.2549 8.05748H11.5623V4.14718H11.5624ZM6.66968 5.62811C6.88769 4.75616 7.66772 4.14714 8.56647 4.14714H10.2589V8.05744H6.06234L6.66968 5.62811ZM5.21383 15.8535C4.49512 15.8535 3.91039 15.2688 3.91039 14.5501C3.91039 13.8314 4.49512 13.2466 5.21383 13.2466C5.93253 13.2466 6.51726 13.8314 6.51726 14.5501C6.51726 15.2688 5.93253 15.8535 5.21383 15.8535ZM14.7723 15.8535C14.0536 15.8535 13.4689 15.2688 13.4689 14.5501C13.4689 13.8314 14.0536 13.2466 14.7723 13.2466C15.4911 13.2466 16.0758 13.8314 16.0758 14.5501C16.0758 15.2688 15.4911 15.8535 14.7723 15.8535ZM18.6965 12.6195C18.6965 12.9789 18.4042 13.2712 18.0448 13.2712H17.0427C16.5948 12.4793 15.7452 11.9432 14.7723 11.9432C13.7995 11.9432 12.9499 12.4793 12.502 13.2712H7.48409C7.03624 12.4793 6.18664 11.9432 5.21375 11.9432C4.24086 11.9432 3.39129 12.4793 2.94341 13.2712H1.96907C1.6097 13.2712 1.31736 12.9789 1.31736 12.6195V11.9432H1.95521C2.31513 11.9432 2.60692 11.6514 2.60692 11.2915C2.60692 10.9315 2.31513 10.6397 1.95521 10.6397H1.43806C1.71388 9.894 2.43208 9.36087 3.27251 9.36087C3.80516 9.36087 16.2392 9.36087 16.7414 9.36087C17.8194 9.36087 18.6965 10.2379 18.6965 11.316V12.6195Z" fill="#13B772"/>
</g>
<defs>
<clipPath id="clip0">
<rect width="20" height="20" fill="white"/>
</clipPath>
</defs>
</svg>
