<svg width="11" height="18" viewBox="0 0 11 18" fill="none" xmlns="http://www.w3.org/2000/svg">
<path d="M0.934795 3.18001L6.75479 9.00001L0.934794 14.82C0.795921 14.9589 0.685762 15.1238 0.610604 15.3052C0.535446 15.4866 0.496762 15.6811 0.496762 15.8775C0.496762 16.0739 0.535446 16.2684 0.610604 16.4498C0.685762 16.6313 0.79592 16.7961 0.934794 16.935C1.07367 17.0739 1.23853 17.184 1.41998 17.2592C1.60143 17.3344 1.7959 17.373 1.99229 17.373C2.18869 17.373 2.38316 17.3344 2.56461 17.2592C2.74605 17.184 2.91092 17.0739 3.04979 16.935L9.93479 10.05C10.0738 9.91124 10.1842 9.74641 10.2594 9.56495C10.3347 9.38349 10.3735 9.18897 10.3735 8.99252C10.3735 8.79606 10.3347 8.60154 10.2594 8.42008C10.1842 8.23862 10.0738 8.07379 9.93479 7.93502L3.04979 1.05002C2.46479 0.465017 1.51979 0.465017 0.934795 1.05002C0.364795 1.63502 0.349795 2.59501 0.934795 3.18001Z" fill="white" fill-opacity="0.7"/>
</svg>
