<svg width="11" height="18" viewBox="0 0 11 18" fill="none" xmlns="http://www.w3.org/2000/svg">
<path d="M10.0652 14.82L4.24521 8.99998L10.0652 3.17998C10.2041 3.04111 10.3142 2.87625 10.3894 2.6948C10.4646 2.51335 10.5032 2.31888 10.5032 2.12248C10.5032 1.92609 10.4646 1.73162 10.3894 1.55017C10.3142 1.36872 10.2041 1.20386 10.0652 1.06498C9.92633 0.926111 9.76147 0.815951 9.58002 0.740794C9.39858 0.665636 9.2041 0.626953 9.00771 0.626953C8.81131 0.626953 8.61684 0.665636 8.43539 0.740794C8.25395 0.815951 8.08908 0.926111 7.95021 1.06498L1.06521 7.94998C0.926152 8.08876 0.815831 8.25359 0.740559 8.43505C0.665286 8.61651 0.626541 8.81103 0.626541 9.00748C0.626541 9.20394 0.665286 9.39846 0.740559 9.57992C0.815831 9.76138 0.926152 9.92621 1.06521 10.065L7.95021 16.95C8.53521 17.535 9.48021 17.535 10.0652 16.95C10.6352 16.365 10.6502 15.405 10.0652 14.82Z" fill="white" fill-opacity="0.7"/>
</svg>
