<svg width="30" height="30" viewBox="0 0 30 30" fill="none" xmlns="http://www.w3.org/2000/svg">
<g>
<path d="M0.937527 30C0.69311 30 0.453202 29.9039 0.274664 29.7253C0.0219807 29.4727 -0.0650026 29.0973 0.0503488 28.7594L2.12768 22.6822C0.734254 20.3521 0 17.7063 0 15C0 6.72914 6.72914 0 15 0C23.2709 0 30 6.72914 30 15C30 23.2709 23.2709 30 15 30C12.2937 30 9.64781 29.2657 7.3178 27.8723L1.24056 29.9496C1.14168 29.9835 1.0391 29.9999 0.937527 30ZM7.43409 25.9039C7.61081 25.9039 7.78659 25.9542 7.93946 26.0513C10.0589 27.4081 12.5006 28.125 15 28.125C22.2372 28.125 28.125 22.2373 28.125 15C28.125 7.76273 22.2372 1.87499 15 1.87499C7.7628 1.87499 1.87499 7.76273 1.87499 15C1.87499 17.4994 2.59184 19.9411 3.94869 22.0605C4.10249 22.3013 4.13818 22.5989 4.04575 22.8689L2.44267 27.5573L7.13106 25.9542C7.22994 25.9204 7.33245 25.9039 7.43409 25.9039Z" fill="#13B772"/>
<ellipse cx="9" cy="15" rx="1.5" ry="1.5" fill="#13B772"/>
<circle cx="14.9993" cy="15" r="1.5" fill="#13B772"/>
<ellipse cx="21.0004" cy="15" rx="1.5" ry="1.5" fill="#13B772"/>
</g>
<defs>
<clipPath id="clip0">
<rect width="30" height="30" fill="white"/>
</clipPath>
</defs>
</svg>
