<svg width="22" height="22" viewBox="0 0 22 22" fill="none" xmlns="http://www.w3.org/2000/svg">
<path d="M0.68752 22C0.508281 22 0.332348 21.9295 0.20142 21.7986C0.0161192 21.6133 -0.0476685 21.338 0.0369225 21.0903L1.5603 16.6336C0.538453 14.9249 0 12.9846 0 11C0 4.93471 4.93471 0 11 0C17.0653 0 22 4.93471 22 11C22 17.0653 17.0653 22 11 22C9.01537 22 7.07506 21.4615 5.36639 20.4397L0.909744 21.963C0.837231 21.9879 0.762008 22 0.68752 22ZM5.45167 18.9962C5.58126 18.9962 5.71017 19.0331 5.82227 19.1043C7.37655 20.0993 9.1671 20.625 11 20.625C16.3073 20.625 20.625 16.3073 20.625 11C20.625 5.69267 16.3073 1.37499 11 1.37499C5.69272 1.37499 1.37499 5.69267 1.37499 11C1.37499 12.8329 1.90068 14.6235 2.8957 16.1777C3.00849 16.3543 3.03467 16.5725 2.96689 16.7706L1.79129 20.2087L5.22944 19.0331C5.30195 19.0083 5.37713 18.9962 5.45167 18.9962Z" fill="#13B772"/>
<path d="M7.7 11.0001C7.7 11.6076 7.20751 12.1001 6.6 12.1001C5.99249 12.1001 5.5 11.6076 5.5 11.0001C5.5 10.3926 5.99249 9.90007 6.6 9.90007C7.20751 9.90007 7.7 10.3926 7.7 11.0001Z" fill="#13B772"/>
<path d="M12.1 11.0001C12.1 11.6076 11.6075 12.1001 11 12.1001C10.3925 12.1001 9.9 11.6076 9.9 11.0001C9.9 10.3926 10.3925 9.90007 11 9.90007C11.6075 9.90007 12.1 10.3926 12.1 11.0001Z" fill="#13B772"/>
<path d="M16.5 11.0001C16.5 11.6076 16.0075 12.1001 15.4 12.1001C14.7925 12.1001 14.3 11.6076 14.3 11.0001C14.3 10.3926 14.7925 9.90007 15.4 9.90007C16.0075 9.90007 16.5 10.3926 16.5 11.0001Z" fill="#13B772"/>
</svg>
