<svg width="16" height="16" viewBox="0 0 16 16" fill="none" xmlns="http://www.w3.org/2000/svg">
<g clip-path="url(#clip0)">
<path d="M0.500015 16C0.369659 16 0.241708 15.9487 0.146487 15.8535C0.011723 15.7187 -0.034668 15.5186 0.0268527 15.3384L1.13476 12.0972C0.391602 10.8545 0 9.44337 0 8C0 3.58888 3.58888 0 8 0C12.4111 0 16 3.58888 16 8C16 12.4111 12.4111 16 8 16C6.55663 16 5.1455 15.6084 3.90283 14.8652L0.661632 15.9731C0.608895 15.9912 0.554188 16 0.500015 16ZM3.96485 13.8154C4.0591 13.8154 4.15285 13.8423 4.23438 13.894C5.36476 14.6177 6.66698 15 8 15C11.8598 15 15 11.8599 15 8C15 4.14013 11.8598 0.999996 8 0.999996C4.14016 0.999996 0.999996 4.14013 0.999996 8C0.999996 9.33302 1.38231 10.6352 2.10597 11.7656C2.18799 11.894 2.20703 12.0527 2.15773 12.1968L1.30276 14.6972L3.80323 13.8423C3.85597 13.8242 3.91064 13.8154 3.96485 13.8154Z" fill="#13B772"/>
<ellipse cx="4.8" cy="8.0002" rx="0.8" ry="0.8" fill="#13B772"/>
<circle cx="8.0002" cy="8.0002" r="0.8" fill="#13B772"/>
<circle cx="11.2004" cy="8.0002" r="0.8" fill="#13B772"/>
</g>
<defs>
<clipPath id="clip0">
<rect width="16" height="16" fill="white"/>
</clipPath>
</defs>
</svg>
