<svg width="20" height="18" viewBox="0 0 20 18" fill="none" xmlns="http://www.w3.org/2000/svg">
<path d="M18.9265 6.25855L13.2046 5.44776L10.6468 0.391854C10.5769 0.253426 10.462 0.141366 10.32 0.0732503C9.96396 -0.0981364 9.53126 0.0446859 9.35323 0.391854L6.79539 5.44776L1.07348 6.25855C0.915732 6.28053 0.771501 6.35304 0.661074 6.4629C0.527574 6.59668 0.45401 6.77667 0.456545 6.96331C0.459081 7.14995 0.537509 7.32797 0.674596 7.45826L4.81447 11.3936L3.8364 16.9504C3.81347 17.0797 3.82814 17.2127 3.87875 17.3342C3.92937 17.4558 4.0139 17.561 4.12277 17.6381C4.23163 17.7152 4.36047 17.761 4.49468 17.7704C4.62889 17.7797 4.76309 17.7522 4.88208 17.6909L10 15.0674L15.118 17.6909C15.2577 17.7634 15.4199 17.7876 15.5754 17.7612C15.9676 17.6953 16.2312 17.3328 16.1636 16.9504L15.1856 11.3936L19.3254 7.45826C19.4381 7.35059 19.5125 7.20997 19.535 7.05616C19.5959 6.67164 19.3209 6.31568 18.9265 6.25855Z" fill="#FF721F"/>
</svg>
