<svg width="14" height="14" viewBox="0 0 14 14" fill="none" xmlns="http://www.w3.org/2000/svg">
<path d="M12.8337 6.16753L3.52534 6.16753L7.59201 2.10086C7.91701 1.77586 7.91701 1.24253 7.59201 0.917531C7.51492 0.840278 7.42334 0.778989 7.32253 0.737171C7.22172 0.695353 7.11365 0.673828 7.00451 0.673828C6.89537 0.673828 6.7873 0.695353 6.68649 0.737171C6.58568 0.778989 6.49411 0.840278 6.41701 0.917531L0.925344 6.4092C0.848091 6.48629 0.786802 6.57787 0.744984 6.67868C0.703166 6.77949 0.681641 6.88756 0.681641 6.9967C0.681641 7.10584 0.703166 7.21391 0.744984 7.31472C0.786802 7.41553 0.848091 7.5071 0.925344 7.5842L6.41701 13.0759C6.49416 13.153 6.58575 13.2142 6.68656 13.256C6.78736 13.2977 6.8954 13.3192 7.00451 13.3192C7.11362 13.3192 7.22166 13.2977 7.32246 13.256C7.42327 13.2142 7.51486 13.153 7.59201 13.0759C7.66916 12.9987 7.73036 12.9071 7.77212 12.8063C7.81387 12.7055 7.83536 12.5975 7.83536 12.4884C7.83536 12.3793 7.81387 12.2712 7.77212 12.1704C7.73036 12.0696 7.66916 11.978 7.59201 11.9009L3.52534 7.8342L12.8337 7.8342C13.292 7.8342 13.667 7.4592 13.667 7.00087C13.667 6.54253 13.292 6.16753 12.8337 6.16753Z" fill="#2B2D2C"/>
</svg>
