<svg width="14" height="14" viewBox="0 0 14 14" fill="none" xmlns="http://www.w3.org/2000/svg">
<path d="M1.16632 7.83247L10.4747 7.83247L6.40799 11.8991C6.08299 12.2241 6.08299 12.7575 6.40799 13.0825C6.48508 13.1597 6.57666 13.221 6.67747 13.2628C6.77828 13.3046 6.88635 13.3262 6.99549 13.3262C7.10463 13.3262 7.2127 13.3046 7.31351 13.2628C7.41432 13.221 7.50589 13.1597 7.58299 13.0825L13.0747 7.5908C13.1519 7.51371 13.2132 7.42213 13.255 7.32132C13.2968 7.22051 13.3184 7.11244 13.3184 7.0033C13.3184 6.89416 13.2968 6.78609 13.255 6.68528C13.2132 6.58447 13.1519 6.4929 13.0747 6.4158L7.58299 0.924133C7.50584 0.846981 7.41425 0.785782 7.31344 0.744029C7.21264 0.702274 7.1046 0.680784 6.99549 0.680784C6.88638 0.680784 6.77834 0.702274 6.67754 0.744028C6.57673 0.785782 6.48514 0.846981 6.40799 0.924133C6.33084 1.00128 6.26964 1.09288 6.22788 1.19368C6.18613 1.29448 6.16464 1.40253 6.16464 1.51163C6.16464 1.62074 6.18613 1.72878 6.22788 1.82959C6.26964 1.93039 6.33084 2.02198 6.40799 2.09913L10.4747 6.1658L1.16632 6.1658C0.707989 6.1658 0.332989 6.5408 0.332989 6.99913C0.332989 7.45747 0.707989 7.83247 1.16632 7.83247Z" fill="#2B2D2C"/>
</svg>
