<svg width="20" height="18" viewBox="0 0 20 18" fill="none" xmlns="http://www.w3.org/2000/svg">
<path d="M19.9609 2.80812C19.2123 3.13719 18.4195 3.35451 17.6078 3.45312C18.4634 2.93956 19.104 2.13334 19.4109 1.18375C18.6016 1.65312 17.7207 1.98651 16.8034 2.17062C16.1865 1.51153 15.3694 1.07445 14.4788 0.927184C13.5882 0.779918 12.6738 0.930703 11.8777 1.35614C11.0815 1.78159 10.448 2.4579 10.0754 3.28015C9.70283 4.10241 9.61206 5.02463 9.81715 5.90375C6.40902 5.74437 3.38777 4.10687 1.36715 1.63312C0.999321 2.25868 0.806945 2.97182 0.810273 3.6975C0.809772 4.3721 0.975864 5.03639 1.2938 5.63137C1.61173 6.22635 2.07167 6.73362 2.63277 7.10812C1.98254 7.08847 1.34647 6.91338 0.777773 6.5975V6.64687C0.777575 7.59376 1.10478 8.5116 1.70393 9.24482C2.30308 9.97804 3.13733 10.4815 4.06527 10.67C3.71377 10.7639 3.35161 10.812 2.98777 10.8131C2.72465 10.8131 2.4734 10.7875 2.22277 10.7412C2.48685 11.5561 2.9984 12.2683 3.68622 12.7788C4.37403 13.2893 5.20389 13.5726 6.06027 13.5894C4.60928 14.7257 2.81889 15.3422 0.975898 15.34C0.649465 15.3413 0.323249 15.3229 -0.000976562 15.285C1.87908 16.4897 4.0655 17.1292 6.2984 17.1275C13.8403 17.1275 17.9615 10.8806 17.9615 5.47062C17.9615 5.29812 17.9615 5.1225 17.9484 4.94625C18.7546 4.36846 19.4493 3.64934 19.999 2.82375L19.9609 2.80812Z" fill="white"/>
</svg>
