<svg width="16" height="16" viewBox="0 0 16 16" fill="none" xmlns="http://www.w3.org/2000/svg">
<path d="M8.75232 11.8052L8.75212 11.8052L8.75233 11.8096C8.77061 12.2059 8.40503 12.5599 7.99975 12.5599C7.58005 12.5599 7.22749 12.2073 7.22749 11.7876C7.22749 11.3679 7.58005 11.0153 7.99975 11.0153C8.42234 11.0153 8.77084 11.3637 8.75232 11.8052Z" fill="#D40202" stroke="white" stroke-width="0.1"/>
<path d="M15.5674 13.8543L15.5674 13.8543C15.0566 14.737 14.1487 15.2634 13.1373 15.2634H2.84915C1.84077 15.2634 0.939586 14.7433 0.435447 13.8773L0.435429 13.8772C-0.0751803 13.0014 -0.0784888 11.9516 0.425703 11.0692C0.425729 11.0691 0.425754 11.0691 0.42578 11.069L5.58289 2.13946L5.583 2.13928C6.0839 1.26351 6.98827 0.737012 8.00309 0.737012C9.01798 0.737012 9.92225 1.26027 10.4231 2.14243L10.4233 2.14275L15.5739 11.0626L15.5739 11.0627C16.078 11.9351 16.0749 12.9783 15.5674 13.8543ZM14.5356 13.2598L14.5357 13.2597C14.8272 12.7546 14.831 12.1567 14.5456 11.6607L14.5456 11.6606L9.39174 2.73434C9.39173 2.73432 9.39172 2.7343 9.39171 2.73428C9.10327 2.2287 8.58351 1.92632 8.00309 1.92632C7.41954 1.92632 6.90301 2.22527 6.61449 2.73095C6.61448 2.73098 6.61446 2.73102 6.61444 2.73105L1.45735 11.6573L1.45727 11.6574C1.16549 12.1663 1.16893 12.7708 1.46063 13.2762L1.46065 13.2762C1.74929 13.7754 2.26915 14.0708 2.84586 14.0708H13.134C13.7177 14.0708 14.2406 13.7685 14.5356 13.2598Z" fill="#D40202" stroke="white" stroke-width="0.1"/>
<path d="M7.26698 6.87102L7.26697 6.87102C7.29492 7.366 7.32288 7.85606 7.35084 8.34613L7.35084 8.34621C7.37879 8.83623 7.40675 9.32627 7.43471 9.82125C7.45291 10.1301 7.6907 10.353 7.99984 10.353C8.30708 10.353 8.54913 10.1159 8.56489 9.80314C8.56489 9.60026 8.5649 9.4111 8.58476 9.20198C8.60283 8.88489 8.62173 8.56781 8.64062 8.25081L8.64063 8.25062L8.64063 8.25055C8.65954 7.93324 8.67844 7.61601 8.69652 7.29879C8.69652 7.29872 8.69653 7.29864 8.69653 7.29857L8.74645 7.30141C8.75632 7.09585 8.7703 6.89028 8.78428 6.68472C8.79825 6.47915 8.81223 6.27359 8.8221 6.06802L7.26698 6.87102ZM7.26698 6.87102L7.2669 6.87005C7.25705 6.74033 7.24802 6.60976 7.23897 6.47899L7.23896 6.47891C7.22997 6.34887 7.22096 6.21863 7.21113 6.08917C7.21183 5.67893 7.44255 5.34665 7.80852 5.24154C8.17647 5.1555 8.543 5.33146 8.70068 5.67703C8.75296 5.8003 8.77199 5.92432 8.7721 6.06683L7.26698 6.87102Z" fill="#D40202" stroke="white" stroke-width="0.1"/>
</svg>
