<svg width="20" height="14" viewBox="0 0 20 14" fill="none" xmlns="http://www.w3.org/2000/svg">
<path d="M19.5804 2.16936C19.4642 1.7542 19.2428 1.37605 18.9377 1.07154C18.6325 0.767036 18.2539 0.546482 17.8385 0.431238C16.2791 0.0143632 10.0104 0.0143633 10.0104 0.0143633C10.0104 0.0143633 3.75348 0.00436317 2.17785 0.431238C1.7631 0.546988 1.38523 0.767774 1.08075 1.07225C0.776265 1.37673 0.55548 1.75461 0.43973 2.16936C0.143605 3.76575 -0.00224148 5.38638 0.00410474 7.00999C0.00121531 8.62578 0.147039 10.2384 0.43973 11.8275C0.555854 12.2425 0.776705 12.6206 1.08108 12.9256C1.38545 13.2307 1.76313 13.4523 2.17785 13.5694C3.73723 13.9862 10.0104 13.9862 10.0104 13.9862C10.0104 13.9862 16.2635 13.9862 17.8385 13.5694C18.2539 13.4528 18.6323 13.2314 18.9373 12.9264C19.2424 12.6213 19.4638 12.2429 19.5804 11.8275C19.8672 10.2394 20.0072 8.62436 19.9972 7.00999C20.0072 5.38499 19.8704 3.76749 19.5804 2.16936ZM8.00785 10.0019V4.00499L13.226 7.00999L8.00785 10.0019Z" fill="white"/>
</svg>
